G04 #@! TF.GenerationSoftware,KiCad,Pcbnew,5.0.2-bee76a0~70~ubuntu18.04.1*
G04 #@! TF.CreationDate,2019-07-19T10:36:36+02:00*
G04 #@! TF.ProjectId,SmartHydroponics,536d6172-7448-4796-9472-6f706f6e6963,rev?*
G04 #@! TF.SameCoordinates,Original*
G04 #@! TF.FileFunction,Paste,Top*
G04 #@! TF.FilePolarity,Positive*
%FSLAX46Y46*%
G04 Gerber Fmt 4.6, Leading zero omitted, Abs format (unit mm)*
G04 Created by KiCad (PCBNEW 5.0.2-bee76a0~70~ubuntu18.04.1) date Fri 19 Jul 2019 10:36:36 CEST*
%MOMM*%
%LPD*%
G01*
G04 APERTURE LIST*
%ADD10C,0.100000*%
%ADD11R,5.000000X5.000000*%
%ADD12R,2.000000X0.900000*%
%ADD13R,0.900000X2.000000*%
%ADD14R,0.875000X0.950000*%
%ADD15C,0.875000*%
%ADD16C,1.250000*%
%ADD17R,1.550000X0.600000*%
%ADD18R,1.060000X0.650000*%
%ADD19R,0.650000X1.060000*%
%ADD20R,1.450000X1.450000*%
%ADD21R,0.950000X0.875000*%
%ADD22R,1.200000X1.000000*%
%ADD23R,0.900000X0.800000*%
%ADD24R,0.250000X0.600000*%
%ADD25R,1.700000X1.000000*%
G04 APERTURE END LIST*
D10*
G04 #@! TO.C,D1*
G36*
X199000000Y-131200000D02*
X197000000Y-131200000D01*
X197000000Y-134800000D01*
X199000000Y-134800000D01*
X199000000Y-131200000D01*
G37*
G36*
X196700000Y-131200000D02*
X194700000Y-131200000D01*
X194700000Y-134800000D01*
X196700000Y-134800000D01*
X196700000Y-131200000D01*
G37*
G04 #@! TD*
D11*
G04 #@! TO.C,U1*
X243930000Y-86980000D03*
D12*
X253445000Y-79495000D03*
X253445000Y-80765000D03*
X253445000Y-82035000D03*
X253445000Y-83305000D03*
X253445000Y-84575000D03*
X253445000Y-85845000D03*
X253445000Y-87115000D03*
X253445000Y-88385000D03*
X253445000Y-89655000D03*
X253445000Y-90925000D03*
X253445000Y-92195000D03*
X253445000Y-93465000D03*
X253445000Y-94735000D03*
X253445000Y-96005000D03*
D13*
X250660000Y-97005000D03*
X249390000Y-97005000D03*
X248120000Y-97005000D03*
X246850000Y-97005000D03*
X245580000Y-97005000D03*
X244310000Y-97005000D03*
X243040000Y-97005000D03*
X241770000Y-97005000D03*
X240500000Y-97005000D03*
X239230000Y-97005000D03*
D12*
X236445000Y-96005000D03*
X236445000Y-94735000D03*
X236445000Y-93465000D03*
X236445000Y-92195000D03*
X236445000Y-90925000D03*
X236445000Y-89655000D03*
X236445000Y-88385000D03*
X236445000Y-87115000D03*
X236445000Y-85845000D03*
X236445000Y-84575000D03*
X236445000Y-83305000D03*
X236445000Y-82035000D03*
X236445000Y-80765000D03*
X236445000Y-79495000D03*
G04 #@! TD*
D14*
G04 #@! TO.C,R1*
X233887500Y-93500000D03*
X232312500Y-93500000D03*
G04 #@! TD*
D10*
G04 #@! TO.C,C71*
G36*
X227577691Y-132851053D02*
X227598926Y-132854203D01*
X227619750Y-132859419D01*
X227639962Y-132866651D01*
X227659368Y-132875830D01*
X227677781Y-132886866D01*
X227695024Y-132899654D01*
X227710930Y-132914070D01*
X227725346Y-132929976D01*
X227738134Y-132947219D01*
X227749170Y-132965632D01*
X227758349Y-132985038D01*
X227765581Y-133005250D01*
X227770797Y-133026074D01*
X227773947Y-133047309D01*
X227775000Y-133068750D01*
X227775000Y-133506250D01*
X227773947Y-133527691D01*
X227770797Y-133548926D01*
X227765581Y-133569750D01*
X227758349Y-133589962D01*
X227749170Y-133609368D01*
X227738134Y-133627781D01*
X227725346Y-133645024D01*
X227710930Y-133660930D01*
X227695024Y-133675346D01*
X227677781Y-133688134D01*
X227659368Y-133699170D01*
X227639962Y-133708349D01*
X227619750Y-133715581D01*
X227598926Y-133720797D01*
X227577691Y-133723947D01*
X227556250Y-133725000D01*
X227043750Y-133725000D01*
X227022309Y-133723947D01*
X227001074Y-133720797D01*
X226980250Y-133715581D01*
X226960038Y-133708349D01*
X226940632Y-133699170D01*
X226922219Y-133688134D01*
X226904976Y-133675346D01*
X226889070Y-133660930D01*
X226874654Y-133645024D01*
X226861866Y-133627781D01*
X226850830Y-133609368D01*
X226841651Y-133589962D01*
X226834419Y-133569750D01*
X226829203Y-133548926D01*
X226826053Y-133527691D01*
X226825000Y-133506250D01*
X226825000Y-133068750D01*
X226826053Y-133047309D01*
X226829203Y-133026074D01*
X226834419Y-133005250D01*
X226841651Y-132985038D01*
X226850830Y-132965632D01*
X226861866Y-132947219D01*
X226874654Y-132929976D01*
X226889070Y-132914070D01*
X226904976Y-132899654D01*
X226922219Y-132886866D01*
X226940632Y-132875830D01*
X226960038Y-132866651D01*
X226980250Y-132859419D01*
X227001074Y-132854203D01*
X227022309Y-132851053D01*
X227043750Y-132850000D01*
X227556250Y-132850000D01*
X227577691Y-132851053D01*
X227577691Y-132851053D01*
G37*
D15*
X227300000Y-133287500D03*
D10*
G36*
X227577691Y-131276053D02*
X227598926Y-131279203D01*
X227619750Y-131284419D01*
X227639962Y-131291651D01*
X227659368Y-131300830D01*
X227677781Y-131311866D01*
X227695024Y-131324654D01*
X227710930Y-131339070D01*
X227725346Y-131354976D01*
X227738134Y-131372219D01*
X227749170Y-131390632D01*
X227758349Y-131410038D01*
X227765581Y-131430250D01*
X227770797Y-131451074D01*
X227773947Y-131472309D01*
X227775000Y-131493750D01*
X227775000Y-131931250D01*
X227773947Y-131952691D01*
X227770797Y-131973926D01*
X227765581Y-131994750D01*
X227758349Y-132014962D01*
X227749170Y-132034368D01*
X227738134Y-132052781D01*
X227725346Y-132070024D01*
X227710930Y-132085930D01*
X227695024Y-132100346D01*
X227677781Y-132113134D01*
X227659368Y-132124170D01*
X227639962Y-132133349D01*
X227619750Y-132140581D01*
X227598926Y-132145797D01*
X227577691Y-132148947D01*
X227556250Y-132150000D01*
X227043750Y-132150000D01*
X227022309Y-132148947D01*
X227001074Y-132145797D01*
X226980250Y-132140581D01*
X226960038Y-132133349D01*
X226940632Y-132124170D01*
X226922219Y-132113134D01*
X226904976Y-132100346D01*
X226889070Y-132085930D01*
X226874654Y-132070024D01*
X226861866Y-132052781D01*
X226850830Y-132034368D01*
X226841651Y-132014962D01*
X226834419Y-131994750D01*
X226829203Y-131973926D01*
X226826053Y-131952691D01*
X226825000Y-131931250D01*
X226825000Y-131493750D01*
X226826053Y-131472309D01*
X226829203Y-131451074D01*
X226834419Y-131430250D01*
X226841651Y-131410038D01*
X226850830Y-131390632D01*
X226861866Y-131372219D01*
X226874654Y-131354976D01*
X226889070Y-131339070D01*
X226904976Y-131324654D01*
X226922219Y-131311866D01*
X226940632Y-131300830D01*
X226960038Y-131291651D01*
X226980250Y-131284419D01*
X227001074Y-131279203D01*
X227022309Y-131276053D01*
X227043750Y-131275000D01*
X227556250Y-131275000D01*
X227577691Y-131276053D01*
X227577691Y-131276053D01*
G37*
D15*
X227300000Y-131712500D03*
G04 #@! TD*
D10*
G04 #@! TO.C,C62*
G36*
X242702691Y-130776053D02*
X242723926Y-130779203D01*
X242744750Y-130784419D01*
X242764962Y-130791651D01*
X242784368Y-130800830D01*
X242802781Y-130811866D01*
X242820024Y-130824654D01*
X242835930Y-130839070D01*
X242850346Y-130854976D01*
X242863134Y-130872219D01*
X242874170Y-130890632D01*
X242883349Y-130910038D01*
X242890581Y-130930250D01*
X242895797Y-130951074D01*
X242898947Y-130972309D01*
X242900000Y-130993750D01*
X242900000Y-131506250D01*
X242898947Y-131527691D01*
X242895797Y-131548926D01*
X242890581Y-131569750D01*
X242883349Y-131589962D01*
X242874170Y-131609368D01*
X242863134Y-131627781D01*
X242850346Y-131645024D01*
X242835930Y-131660930D01*
X242820024Y-131675346D01*
X242802781Y-131688134D01*
X242784368Y-131699170D01*
X242764962Y-131708349D01*
X242744750Y-131715581D01*
X242723926Y-131720797D01*
X242702691Y-131723947D01*
X242681250Y-131725000D01*
X242243750Y-131725000D01*
X242222309Y-131723947D01*
X242201074Y-131720797D01*
X242180250Y-131715581D01*
X242160038Y-131708349D01*
X242140632Y-131699170D01*
X242122219Y-131688134D01*
X242104976Y-131675346D01*
X242089070Y-131660930D01*
X242074654Y-131645024D01*
X242061866Y-131627781D01*
X242050830Y-131609368D01*
X242041651Y-131589962D01*
X242034419Y-131569750D01*
X242029203Y-131548926D01*
X242026053Y-131527691D01*
X242025000Y-131506250D01*
X242025000Y-130993750D01*
X242026053Y-130972309D01*
X242029203Y-130951074D01*
X242034419Y-130930250D01*
X242041651Y-130910038D01*
X242050830Y-130890632D01*
X242061866Y-130872219D01*
X242074654Y-130854976D01*
X242089070Y-130839070D01*
X242104976Y-130824654D01*
X242122219Y-130811866D01*
X242140632Y-130800830D01*
X242160038Y-130791651D01*
X242180250Y-130784419D01*
X242201074Y-130779203D01*
X242222309Y-130776053D01*
X242243750Y-130775000D01*
X242681250Y-130775000D01*
X242702691Y-130776053D01*
X242702691Y-130776053D01*
G37*
D15*
X242462500Y-131250000D03*
D10*
G36*
X244277691Y-130776053D02*
X244298926Y-130779203D01*
X244319750Y-130784419D01*
X244339962Y-130791651D01*
X244359368Y-130800830D01*
X244377781Y-130811866D01*
X244395024Y-130824654D01*
X244410930Y-130839070D01*
X244425346Y-130854976D01*
X244438134Y-130872219D01*
X244449170Y-130890632D01*
X244458349Y-130910038D01*
X244465581Y-130930250D01*
X244470797Y-130951074D01*
X244473947Y-130972309D01*
X244475000Y-130993750D01*
X244475000Y-131506250D01*
X244473947Y-131527691D01*
X244470797Y-131548926D01*
X244465581Y-131569750D01*
X244458349Y-131589962D01*
X244449170Y-131609368D01*
X244438134Y-131627781D01*
X244425346Y-131645024D01*
X244410930Y-131660930D01*
X244395024Y-131675346D01*
X244377781Y-131688134D01*
X244359368Y-131699170D01*
X244339962Y-131708349D01*
X244319750Y-131715581D01*
X244298926Y-131720797D01*
X244277691Y-131723947D01*
X244256250Y-131725000D01*
X243818750Y-131725000D01*
X243797309Y-131723947D01*
X243776074Y-131720797D01*
X243755250Y-131715581D01*
X243735038Y-131708349D01*
X243715632Y-131699170D01*
X243697219Y-131688134D01*
X243679976Y-131675346D01*
X243664070Y-131660930D01*
X243649654Y-131645024D01*
X243636866Y-131627781D01*
X243625830Y-131609368D01*
X243616651Y-131589962D01*
X243609419Y-131569750D01*
X243604203Y-131548926D01*
X243601053Y-131527691D01*
X243600000Y-131506250D01*
X243600000Y-130993750D01*
X243601053Y-130972309D01*
X243604203Y-130951074D01*
X243609419Y-130930250D01*
X243616651Y-130910038D01*
X243625830Y-130890632D01*
X243636866Y-130872219D01*
X243649654Y-130854976D01*
X243664070Y-130839070D01*
X243679976Y-130824654D01*
X243697219Y-130811866D01*
X243715632Y-130800830D01*
X243735038Y-130791651D01*
X243755250Y-130784419D01*
X243776074Y-130779203D01*
X243797309Y-130776053D01*
X243818750Y-130775000D01*
X244256250Y-130775000D01*
X244277691Y-130776053D01*
X244277691Y-130776053D01*
G37*
D15*
X244037500Y-131250000D03*
G04 #@! TD*
D10*
G04 #@! TO.C,C51*
G36*
X230277691Y-134951053D02*
X230298926Y-134954203D01*
X230319750Y-134959419D01*
X230339962Y-134966651D01*
X230359368Y-134975830D01*
X230377781Y-134986866D01*
X230395024Y-134999654D01*
X230410930Y-135014070D01*
X230425346Y-135029976D01*
X230438134Y-135047219D01*
X230449170Y-135065632D01*
X230458349Y-135085038D01*
X230465581Y-135105250D01*
X230470797Y-135126074D01*
X230473947Y-135147309D01*
X230475000Y-135168750D01*
X230475000Y-135681250D01*
X230473947Y-135702691D01*
X230470797Y-135723926D01*
X230465581Y-135744750D01*
X230458349Y-135764962D01*
X230449170Y-135784368D01*
X230438134Y-135802781D01*
X230425346Y-135820024D01*
X230410930Y-135835930D01*
X230395024Y-135850346D01*
X230377781Y-135863134D01*
X230359368Y-135874170D01*
X230339962Y-135883349D01*
X230319750Y-135890581D01*
X230298926Y-135895797D01*
X230277691Y-135898947D01*
X230256250Y-135900000D01*
X229818750Y-135900000D01*
X229797309Y-135898947D01*
X229776074Y-135895797D01*
X229755250Y-135890581D01*
X229735038Y-135883349D01*
X229715632Y-135874170D01*
X229697219Y-135863134D01*
X229679976Y-135850346D01*
X229664070Y-135835930D01*
X229649654Y-135820024D01*
X229636866Y-135802781D01*
X229625830Y-135784368D01*
X229616651Y-135764962D01*
X229609419Y-135744750D01*
X229604203Y-135723926D01*
X229601053Y-135702691D01*
X229600000Y-135681250D01*
X229600000Y-135168750D01*
X229601053Y-135147309D01*
X229604203Y-135126074D01*
X229609419Y-135105250D01*
X229616651Y-135085038D01*
X229625830Y-135065632D01*
X229636866Y-135047219D01*
X229649654Y-135029976D01*
X229664070Y-135014070D01*
X229679976Y-134999654D01*
X229697219Y-134986866D01*
X229715632Y-134975830D01*
X229735038Y-134966651D01*
X229755250Y-134959419D01*
X229776074Y-134954203D01*
X229797309Y-134951053D01*
X229818750Y-134950000D01*
X230256250Y-134950000D01*
X230277691Y-134951053D01*
X230277691Y-134951053D01*
G37*
D15*
X230037500Y-135425000D03*
D10*
G36*
X231852691Y-134951053D02*
X231873926Y-134954203D01*
X231894750Y-134959419D01*
X231914962Y-134966651D01*
X231934368Y-134975830D01*
X231952781Y-134986866D01*
X231970024Y-134999654D01*
X231985930Y-135014070D01*
X232000346Y-135029976D01*
X232013134Y-135047219D01*
X232024170Y-135065632D01*
X232033349Y-135085038D01*
X232040581Y-135105250D01*
X232045797Y-135126074D01*
X232048947Y-135147309D01*
X232050000Y-135168750D01*
X232050000Y-135681250D01*
X232048947Y-135702691D01*
X232045797Y-135723926D01*
X232040581Y-135744750D01*
X232033349Y-135764962D01*
X232024170Y-135784368D01*
X232013134Y-135802781D01*
X232000346Y-135820024D01*
X231985930Y-135835930D01*
X231970024Y-135850346D01*
X231952781Y-135863134D01*
X231934368Y-135874170D01*
X231914962Y-135883349D01*
X231894750Y-135890581D01*
X231873926Y-135895797D01*
X231852691Y-135898947D01*
X231831250Y-135900000D01*
X231393750Y-135900000D01*
X231372309Y-135898947D01*
X231351074Y-135895797D01*
X231330250Y-135890581D01*
X231310038Y-135883349D01*
X231290632Y-135874170D01*
X231272219Y-135863134D01*
X231254976Y-135850346D01*
X231239070Y-135835930D01*
X231224654Y-135820024D01*
X231211866Y-135802781D01*
X231200830Y-135784368D01*
X231191651Y-135764962D01*
X231184419Y-135744750D01*
X231179203Y-135723926D01*
X231176053Y-135702691D01*
X231175000Y-135681250D01*
X231175000Y-135168750D01*
X231176053Y-135147309D01*
X231179203Y-135126074D01*
X231184419Y-135105250D01*
X231191651Y-135085038D01*
X231200830Y-135065632D01*
X231211866Y-135047219D01*
X231224654Y-135029976D01*
X231239070Y-135014070D01*
X231254976Y-134999654D01*
X231272219Y-134986866D01*
X231290632Y-134975830D01*
X231310038Y-134966651D01*
X231330250Y-134959419D01*
X231351074Y-134954203D01*
X231372309Y-134951053D01*
X231393750Y-134950000D01*
X231831250Y-134950000D01*
X231852691Y-134951053D01*
X231852691Y-134951053D01*
G37*
D15*
X231612500Y-135425000D03*
G04 #@! TD*
D10*
G04 #@! TO.C,C61*
G36*
X242874504Y-127176204D02*
X242898773Y-127179804D01*
X242922571Y-127185765D01*
X242945671Y-127194030D01*
X242967849Y-127204520D01*
X242988893Y-127217133D01*
X243008598Y-127231747D01*
X243026777Y-127248223D01*
X243043253Y-127266402D01*
X243057867Y-127286107D01*
X243070480Y-127307151D01*
X243080970Y-127329329D01*
X243089235Y-127352429D01*
X243095196Y-127376227D01*
X243098796Y-127400496D01*
X243100000Y-127425000D01*
X243100000Y-129575000D01*
X243098796Y-129599504D01*
X243095196Y-129623773D01*
X243089235Y-129647571D01*
X243080970Y-129670671D01*
X243070480Y-129692849D01*
X243057867Y-129713893D01*
X243043253Y-129733598D01*
X243026777Y-129751777D01*
X243008598Y-129768253D01*
X242988893Y-129782867D01*
X242967849Y-129795480D01*
X242945671Y-129805970D01*
X242922571Y-129814235D01*
X242898773Y-129820196D01*
X242874504Y-129823796D01*
X242850000Y-129825000D01*
X242100000Y-129825000D01*
X242075496Y-129823796D01*
X242051227Y-129820196D01*
X242027429Y-129814235D01*
X242004329Y-129805970D01*
X241982151Y-129795480D01*
X241961107Y-129782867D01*
X241941402Y-129768253D01*
X241923223Y-129751777D01*
X241906747Y-129733598D01*
X241892133Y-129713893D01*
X241879520Y-129692849D01*
X241869030Y-129670671D01*
X241860765Y-129647571D01*
X241854804Y-129623773D01*
X241851204Y-129599504D01*
X241850000Y-129575000D01*
X241850000Y-127425000D01*
X241851204Y-127400496D01*
X241854804Y-127376227D01*
X241860765Y-127352429D01*
X241869030Y-127329329D01*
X241879520Y-127307151D01*
X241892133Y-127286107D01*
X241906747Y-127266402D01*
X241923223Y-127248223D01*
X241941402Y-127231747D01*
X241961107Y-127217133D01*
X241982151Y-127204520D01*
X242004329Y-127194030D01*
X242027429Y-127185765D01*
X242051227Y-127179804D01*
X242075496Y-127176204D01*
X242100000Y-127175000D01*
X242850000Y-127175000D01*
X242874504Y-127176204D01*
X242874504Y-127176204D01*
G37*
D16*
X242475000Y-128500000D03*
D10*
G36*
X245674504Y-127176204D02*
X245698773Y-127179804D01*
X245722571Y-127185765D01*
X245745671Y-127194030D01*
X245767849Y-127204520D01*
X245788893Y-127217133D01*
X245808598Y-127231747D01*
X245826777Y-127248223D01*
X245843253Y-127266402D01*
X245857867Y-127286107D01*
X245870480Y-127307151D01*
X245880970Y-127329329D01*
X245889235Y-127352429D01*
X245895196Y-127376227D01*
X245898796Y-127400496D01*
X245900000Y-127425000D01*
X245900000Y-129575000D01*
X245898796Y-129599504D01*
X245895196Y-129623773D01*
X245889235Y-129647571D01*
X245880970Y-129670671D01*
X245870480Y-129692849D01*
X245857867Y-129713893D01*
X245843253Y-129733598D01*
X245826777Y-129751777D01*
X245808598Y-129768253D01*
X245788893Y-129782867D01*
X245767849Y-129795480D01*
X245745671Y-129805970D01*
X245722571Y-129814235D01*
X245698773Y-129820196D01*
X245674504Y-129823796D01*
X245650000Y-129825000D01*
X244900000Y-129825000D01*
X244875496Y-129823796D01*
X244851227Y-129820196D01*
X244827429Y-129814235D01*
X244804329Y-129805970D01*
X244782151Y-129795480D01*
X244761107Y-129782867D01*
X244741402Y-129768253D01*
X244723223Y-129751777D01*
X244706747Y-129733598D01*
X244692133Y-129713893D01*
X244679520Y-129692849D01*
X244669030Y-129670671D01*
X244660765Y-129647571D01*
X244654804Y-129623773D01*
X244651204Y-129599504D01*
X244650000Y-129575000D01*
X244650000Y-127425000D01*
X244651204Y-127400496D01*
X244654804Y-127376227D01*
X244660765Y-127352429D01*
X244669030Y-127329329D01*
X244679520Y-127307151D01*
X244692133Y-127286107D01*
X244706747Y-127266402D01*
X244723223Y-127248223D01*
X244741402Y-127231747D01*
X244761107Y-127217133D01*
X244782151Y-127204520D01*
X244804329Y-127194030D01*
X244827429Y-127185765D01*
X244851227Y-127179804D01*
X244875496Y-127176204D01*
X244900000Y-127175000D01*
X245650000Y-127175000D01*
X245674504Y-127176204D01*
X245674504Y-127176204D01*
G37*
D16*
X245275000Y-128500000D03*
G04 #@! TD*
D17*
G04 #@! TO.C,U5*
X239150000Y-135405000D03*
X239150000Y-134135000D03*
X239150000Y-132865000D03*
X239150000Y-131595000D03*
X233750000Y-131595000D03*
X233750000Y-132865000D03*
X233750000Y-134135000D03*
X233750000Y-135405000D03*
G04 #@! TD*
D18*
G04 #@! TO.C,U7*
X229100000Y-130750000D03*
X229100000Y-131700000D03*
X229100000Y-129800000D03*
X231300000Y-129800000D03*
X231300000Y-130750000D03*
X231300000Y-131700000D03*
G04 #@! TD*
D19*
G04 #@! TO.C,U6*
X241500000Y-135350000D03*
X242450000Y-135350000D03*
X243400000Y-135350000D03*
X243400000Y-133150000D03*
X241500000Y-133150000D03*
X242450000Y-133150000D03*
G04 #@! TD*
D10*
G04 #@! TO.C,C31*
G36*
X202699504Y-125876204D02*
X202723773Y-125879804D01*
X202747571Y-125885765D01*
X202770671Y-125894030D01*
X202792849Y-125904520D01*
X202813893Y-125917133D01*
X202833598Y-125931747D01*
X202851777Y-125948223D01*
X202868253Y-125966402D01*
X202882867Y-125986107D01*
X202895480Y-126007151D01*
X202905970Y-126029329D01*
X202914235Y-126052429D01*
X202920196Y-126076227D01*
X202923796Y-126100496D01*
X202925000Y-126125000D01*
X202925000Y-126875000D01*
X202923796Y-126899504D01*
X202920196Y-126923773D01*
X202914235Y-126947571D01*
X202905970Y-126970671D01*
X202895480Y-126992849D01*
X202882867Y-127013893D01*
X202868253Y-127033598D01*
X202851777Y-127051777D01*
X202833598Y-127068253D01*
X202813893Y-127082867D01*
X202792849Y-127095480D01*
X202770671Y-127105970D01*
X202747571Y-127114235D01*
X202723773Y-127120196D01*
X202699504Y-127123796D01*
X202675000Y-127125000D01*
X200525000Y-127125000D01*
X200500496Y-127123796D01*
X200476227Y-127120196D01*
X200452429Y-127114235D01*
X200429329Y-127105970D01*
X200407151Y-127095480D01*
X200386107Y-127082867D01*
X200366402Y-127068253D01*
X200348223Y-127051777D01*
X200331747Y-127033598D01*
X200317133Y-127013893D01*
X200304520Y-126992849D01*
X200294030Y-126970671D01*
X200285765Y-126947571D01*
X200279804Y-126923773D01*
X200276204Y-126899504D01*
X200275000Y-126875000D01*
X200275000Y-126125000D01*
X200276204Y-126100496D01*
X200279804Y-126076227D01*
X200285765Y-126052429D01*
X200294030Y-126029329D01*
X200304520Y-126007151D01*
X200317133Y-125986107D01*
X200331747Y-125966402D01*
X200348223Y-125948223D01*
X200366402Y-125931747D01*
X200386107Y-125917133D01*
X200407151Y-125904520D01*
X200429329Y-125894030D01*
X200452429Y-125885765D01*
X200476227Y-125879804D01*
X200500496Y-125876204D01*
X200525000Y-125875000D01*
X202675000Y-125875000D01*
X202699504Y-125876204D01*
X202699504Y-125876204D01*
G37*
D16*
X201600000Y-126500000D03*
D10*
G36*
X202699504Y-128676204D02*
X202723773Y-128679804D01*
X202747571Y-128685765D01*
X202770671Y-128694030D01*
X202792849Y-128704520D01*
X202813893Y-128717133D01*
X202833598Y-128731747D01*
X202851777Y-128748223D01*
X202868253Y-128766402D01*
X202882867Y-128786107D01*
X202895480Y-128807151D01*
X202905970Y-128829329D01*
X202914235Y-128852429D01*
X202920196Y-128876227D01*
X202923796Y-128900496D01*
X202925000Y-128925000D01*
X202925000Y-129675000D01*
X202923796Y-129699504D01*
X202920196Y-129723773D01*
X202914235Y-129747571D01*
X202905970Y-129770671D01*
X202895480Y-129792849D01*
X202882867Y-129813893D01*
X202868253Y-129833598D01*
X202851777Y-129851777D01*
X202833598Y-129868253D01*
X202813893Y-129882867D01*
X202792849Y-129895480D01*
X202770671Y-129905970D01*
X202747571Y-129914235D01*
X202723773Y-129920196D01*
X202699504Y-129923796D01*
X202675000Y-129925000D01*
X200525000Y-129925000D01*
X200500496Y-129923796D01*
X200476227Y-129920196D01*
X200452429Y-129914235D01*
X200429329Y-129905970D01*
X200407151Y-129895480D01*
X200386107Y-129882867D01*
X200366402Y-129868253D01*
X200348223Y-129851777D01*
X200331747Y-129833598D01*
X200317133Y-129813893D01*
X200304520Y-129792849D01*
X200294030Y-129770671D01*
X200285765Y-129747571D01*
X200279804Y-129723773D01*
X200276204Y-129699504D01*
X200275000Y-129675000D01*
X200275000Y-128925000D01*
X200276204Y-128900496D01*
X200279804Y-128876227D01*
X200285765Y-128852429D01*
X200294030Y-128829329D01*
X200304520Y-128807151D01*
X200317133Y-128786107D01*
X200331747Y-128766402D01*
X200348223Y-128748223D01*
X200366402Y-128731747D01*
X200386107Y-128717133D01*
X200407151Y-128704520D01*
X200429329Y-128694030D01*
X200452429Y-128685765D01*
X200476227Y-128679804D01*
X200500496Y-128676204D01*
X200525000Y-128675000D01*
X202675000Y-128675000D01*
X202699504Y-128676204D01*
X202699504Y-128676204D01*
G37*
D16*
X201600000Y-129300000D03*
G04 #@! TD*
D20*
G04 #@! TO.C,D1*
X200900000Y-134000000D03*
X200900000Y-132000000D03*
G04 #@! TD*
D21*
G04 #@! TO.C,R7*
X196700000Y-81787500D03*
X196700000Y-80212500D03*
G04 #@! TD*
G04 #@! TO.C,R25*
X195200000Y-97212500D03*
X195200000Y-98787500D03*
G04 #@! TD*
G04 #@! TO.C,R24*
X195200000Y-90287500D03*
X195200000Y-88712500D03*
G04 #@! TD*
G04 #@! TO.C,R23*
X195200000Y-80212500D03*
X195200000Y-81787500D03*
G04 #@! TD*
G04 #@! TO.C,R19*
X195200000Y-125712500D03*
X195200000Y-127287500D03*
G04 #@! TD*
D22*
G04 #@! TO.C,LD1*
X217750000Y-108400000D03*
X222250000Y-108400000D03*
X217750000Y-110000000D03*
X222250000Y-110000000D03*
X217750000Y-111600000D03*
X222250000Y-111600000D03*
G04 #@! TD*
D14*
G04 #@! TO.C,R113*
X227712500Y-111500000D03*
X229287500Y-111500000D03*
G04 #@! TD*
G04 #@! TO.C,R111*
X229287500Y-108500000D03*
X227712500Y-108500000D03*
G04 #@! TD*
G04 #@! TO.C,R112*
X227712500Y-110000000D03*
X229287500Y-110000000D03*
G04 #@! TD*
D21*
G04 #@! TO.C,R13*
X233800000Y-82337500D03*
X233800000Y-80762500D03*
G04 #@! TD*
G04 #@! TO.C,R17*
X246950000Y-99612500D03*
X246950000Y-101187500D03*
G04 #@! TD*
G04 #@! TO.C,R15*
X248450000Y-99612500D03*
X248450000Y-101187500D03*
G04 #@! TD*
D14*
G04 #@! TO.C,R14*
X233837500Y-96000000D03*
X232262500Y-96000000D03*
G04 #@! TD*
D21*
G04 #@! TO.C,R16*
X250675000Y-101187500D03*
X250675000Y-99612500D03*
G04 #@! TD*
D14*
G04 #@! TO.C,R11*
X252737500Y-113900000D03*
X251162500Y-113900000D03*
G04 #@! TD*
G04 #@! TO.C,R12*
X249737500Y-113900000D03*
X248162500Y-113900000D03*
G04 #@! TD*
D10*
G04 #@! TO.C,C33*
G36*
X214999504Y-135176204D02*
X215023773Y-135179804D01*
X215047571Y-135185765D01*
X215070671Y-135194030D01*
X215092849Y-135204520D01*
X215113893Y-135217133D01*
X215133598Y-135231747D01*
X215151777Y-135248223D01*
X215168253Y-135266402D01*
X215182867Y-135286107D01*
X215195480Y-135307151D01*
X215205970Y-135329329D01*
X215214235Y-135352429D01*
X215220196Y-135376227D01*
X215223796Y-135400496D01*
X215225000Y-135425000D01*
X215225000Y-137575000D01*
X215223796Y-137599504D01*
X215220196Y-137623773D01*
X215214235Y-137647571D01*
X215205970Y-137670671D01*
X215195480Y-137692849D01*
X215182867Y-137713893D01*
X215168253Y-137733598D01*
X215151777Y-137751777D01*
X215133598Y-137768253D01*
X215113893Y-137782867D01*
X215092849Y-137795480D01*
X215070671Y-137805970D01*
X215047571Y-137814235D01*
X215023773Y-137820196D01*
X214999504Y-137823796D01*
X214975000Y-137825000D01*
X214225000Y-137825000D01*
X214200496Y-137823796D01*
X214176227Y-137820196D01*
X214152429Y-137814235D01*
X214129329Y-137805970D01*
X214107151Y-137795480D01*
X214086107Y-137782867D01*
X214066402Y-137768253D01*
X214048223Y-137751777D01*
X214031747Y-137733598D01*
X214017133Y-137713893D01*
X214004520Y-137692849D01*
X213994030Y-137670671D01*
X213985765Y-137647571D01*
X213979804Y-137623773D01*
X213976204Y-137599504D01*
X213975000Y-137575000D01*
X213975000Y-135425000D01*
X213976204Y-135400496D01*
X213979804Y-135376227D01*
X213985765Y-135352429D01*
X213994030Y-135329329D01*
X214004520Y-135307151D01*
X214017133Y-135286107D01*
X214031747Y-135266402D01*
X214048223Y-135248223D01*
X214066402Y-135231747D01*
X214086107Y-135217133D01*
X214107151Y-135204520D01*
X214129329Y-135194030D01*
X214152429Y-135185765D01*
X214176227Y-135179804D01*
X214200496Y-135176204D01*
X214225000Y-135175000D01*
X214975000Y-135175000D01*
X214999504Y-135176204D01*
X214999504Y-135176204D01*
G37*
D16*
X214600000Y-136500000D03*
D10*
G36*
X217799504Y-135176204D02*
X217823773Y-135179804D01*
X217847571Y-135185765D01*
X217870671Y-135194030D01*
X217892849Y-135204520D01*
X217913893Y-135217133D01*
X217933598Y-135231747D01*
X217951777Y-135248223D01*
X217968253Y-135266402D01*
X217982867Y-135286107D01*
X217995480Y-135307151D01*
X218005970Y-135329329D01*
X218014235Y-135352429D01*
X218020196Y-135376227D01*
X218023796Y-135400496D01*
X218025000Y-135425000D01*
X218025000Y-137575000D01*
X218023796Y-137599504D01*
X218020196Y-137623773D01*
X218014235Y-137647571D01*
X218005970Y-137670671D01*
X217995480Y-137692849D01*
X217982867Y-137713893D01*
X217968253Y-137733598D01*
X217951777Y-137751777D01*
X217933598Y-137768253D01*
X217913893Y-137782867D01*
X217892849Y-137795480D01*
X217870671Y-137805970D01*
X217847571Y-137814235D01*
X217823773Y-137820196D01*
X217799504Y-137823796D01*
X217775000Y-137825000D01*
X217025000Y-137825000D01*
X217000496Y-137823796D01*
X216976227Y-137820196D01*
X216952429Y-137814235D01*
X216929329Y-137805970D01*
X216907151Y-137795480D01*
X216886107Y-137782867D01*
X216866402Y-137768253D01*
X216848223Y-137751777D01*
X216831747Y-137733598D01*
X216817133Y-137713893D01*
X216804520Y-137692849D01*
X216794030Y-137670671D01*
X216785765Y-137647571D01*
X216779804Y-137623773D01*
X216776204Y-137599504D01*
X216775000Y-137575000D01*
X216775000Y-135425000D01*
X216776204Y-135400496D01*
X216779804Y-135376227D01*
X216785765Y-135352429D01*
X216794030Y-135329329D01*
X216804520Y-135307151D01*
X216817133Y-135286107D01*
X216831747Y-135266402D01*
X216848223Y-135248223D01*
X216866402Y-135231747D01*
X216886107Y-135217133D01*
X216907151Y-135204520D01*
X216929329Y-135194030D01*
X216952429Y-135185765D01*
X216976227Y-135179804D01*
X217000496Y-135176204D01*
X217025000Y-135175000D01*
X217775000Y-135175000D01*
X217799504Y-135176204D01*
X217799504Y-135176204D01*
G37*
D16*
X217400000Y-136500000D03*
G04 #@! TD*
D10*
G04 #@! TO.C,C35*
G36*
X208452691Y-133526053D02*
X208473926Y-133529203D01*
X208494750Y-133534419D01*
X208514962Y-133541651D01*
X208534368Y-133550830D01*
X208552781Y-133561866D01*
X208570024Y-133574654D01*
X208585930Y-133589070D01*
X208600346Y-133604976D01*
X208613134Y-133622219D01*
X208624170Y-133640632D01*
X208633349Y-133660038D01*
X208640581Y-133680250D01*
X208645797Y-133701074D01*
X208648947Y-133722309D01*
X208650000Y-133743750D01*
X208650000Y-134256250D01*
X208648947Y-134277691D01*
X208645797Y-134298926D01*
X208640581Y-134319750D01*
X208633349Y-134339962D01*
X208624170Y-134359368D01*
X208613134Y-134377781D01*
X208600346Y-134395024D01*
X208585930Y-134410930D01*
X208570024Y-134425346D01*
X208552781Y-134438134D01*
X208534368Y-134449170D01*
X208514962Y-134458349D01*
X208494750Y-134465581D01*
X208473926Y-134470797D01*
X208452691Y-134473947D01*
X208431250Y-134475000D01*
X207993750Y-134475000D01*
X207972309Y-134473947D01*
X207951074Y-134470797D01*
X207930250Y-134465581D01*
X207910038Y-134458349D01*
X207890632Y-134449170D01*
X207872219Y-134438134D01*
X207854976Y-134425346D01*
X207839070Y-134410930D01*
X207824654Y-134395024D01*
X207811866Y-134377781D01*
X207800830Y-134359368D01*
X207791651Y-134339962D01*
X207784419Y-134319750D01*
X207779203Y-134298926D01*
X207776053Y-134277691D01*
X207775000Y-134256250D01*
X207775000Y-133743750D01*
X207776053Y-133722309D01*
X207779203Y-133701074D01*
X207784419Y-133680250D01*
X207791651Y-133660038D01*
X207800830Y-133640632D01*
X207811866Y-133622219D01*
X207824654Y-133604976D01*
X207839070Y-133589070D01*
X207854976Y-133574654D01*
X207872219Y-133561866D01*
X207890632Y-133550830D01*
X207910038Y-133541651D01*
X207930250Y-133534419D01*
X207951074Y-133529203D01*
X207972309Y-133526053D01*
X207993750Y-133525000D01*
X208431250Y-133525000D01*
X208452691Y-133526053D01*
X208452691Y-133526053D01*
G37*
D15*
X208212500Y-134000000D03*
D10*
G36*
X210027691Y-133526053D02*
X210048926Y-133529203D01*
X210069750Y-133534419D01*
X210089962Y-133541651D01*
X210109368Y-133550830D01*
X210127781Y-133561866D01*
X210145024Y-133574654D01*
X210160930Y-133589070D01*
X210175346Y-133604976D01*
X210188134Y-133622219D01*
X210199170Y-133640632D01*
X210208349Y-133660038D01*
X210215581Y-133680250D01*
X210220797Y-133701074D01*
X210223947Y-133722309D01*
X210225000Y-133743750D01*
X210225000Y-134256250D01*
X210223947Y-134277691D01*
X210220797Y-134298926D01*
X210215581Y-134319750D01*
X210208349Y-134339962D01*
X210199170Y-134359368D01*
X210188134Y-134377781D01*
X210175346Y-134395024D01*
X210160930Y-134410930D01*
X210145024Y-134425346D01*
X210127781Y-134438134D01*
X210109368Y-134449170D01*
X210089962Y-134458349D01*
X210069750Y-134465581D01*
X210048926Y-134470797D01*
X210027691Y-134473947D01*
X210006250Y-134475000D01*
X209568750Y-134475000D01*
X209547309Y-134473947D01*
X209526074Y-134470797D01*
X209505250Y-134465581D01*
X209485038Y-134458349D01*
X209465632Y-134449170D01*
X209447219Y-134438134D01*
X209429976Y-134425346D01*
X209414070Y-134410930D01*
X209399654Y-134395024D01*
X209386866Y-134377781D01*
X209375830Y-134359368D01*
X209366651Y-134339962D01*
X209359419Y-134319750D01*
X209354203Y-134298926D01*
X209351053Y-134277691D01*
X209350000Y-134256250D01*
X209350000Y-133743750D01*
X209351053Y-133722309D01*
X209354203Y-133701074D01*
X209359419Y-133680250D01*
X209366651Y-133660038D01*
X209375830Y-133640632D01*
X209386866Y-133622219D01*
X209399654Y-133604976D01*
X209414070Y-133589070D01*
X209429976Y-133574654D01*
X209447219Y-133561866D01*
X209465632Y-133550830D01*
X209485038Y-133541651D01*
X209505250Y-133534419D01*
X209526074Y-133529203D01*
X209547309Y-133526053D01*
X209568750Y-133525000D01*
X210006250Y-133525000D01*
X210027691Y-133526053D01*
X210027691Y-133526053D01*
G37*
D15*
X209787500Y-134000000D03*
G04 #@! TD*
D10*
G04 #@! TO.C,L31*
G36*
X208499504Y-135176204D02*
X208523773Y-135179804D01*
X208547571Y-135185765D01*
X208570671Y-135194030D01*
X208592849Y-135204520D01*
X208613893Y-135217133D01*
X208633598Y-135231747D01*
X208651777Y-135248223D01*
X208668253Y-135266402D01*
X208682867Y-135286107D01*
X208695480Y-135307151D01*
X208705970Y-135329329D01*
X208714235Y-135352429D01*
X208720196Y-135376227D01*
X208723796Y-135400496D01*
X208725000Y-135425000D01*
X208725000Y-137575000D01*
X208723796Y-137599504D01*
X208720196Y-137623773D01*
X208714235Y-137647571D01*
X208705970Y-137670671D01*
X208695480Y-137692849D01*
X208682867Y-137713893D01*
X208668253Y-137733598D01*
X208651777Y-137751777D01*
X208633598Y-137768253D01*
X208613893Y-137782867D01*
X208592849Y-137795480D01*
X208570671Y-137805970D01*
X208547571Y-137814235D01*
X208523773Y-137820196D01*
X208499504Y-137823796D01*
X208475000Y-137825000D01*
X207725000Y-137825000D01*
X207700496Y-137823796D01*
X207676227Y-137820196D01*
X207652429Y-137814235D01*
X207629329Y-137805970D01*
X207607151Y-137795480D01*
X207586107Y-137782867D01*
X207566402Y-137768253D01*
X207548223Y-137751777D01*
X207531747Y-137733598D01*
X207517133Y-137713893D01*
X207504520Y-137692849D01*
X207494030Y-137670671D01*
X207485765Y-137647571D01*
X207479804Y-137623773D01*
X207476204Y-137599504D01*
X207475000Y-137575000D01*
X207475000Y-135425000D01*
X207476204Y-135400496D01*
X207479804Y-135376227D01*
X207485765Y-135352429D01*
X207494030Y-135329329D01*
X207504520Y-135307151D01*
X207517133Y-135286107D01*
X207531747Y-135266402D01*
X207548223Y-135248223D01*
X207566402Y-135231747D01*
X207586107Y-135217133D01*
X207607151Y-135204520D01*
X207629329Y-135194030D01*
X207652429Y-135185765D01*
X207676227Y-135179804D01*
X207700496Y-135176204D01*
X207725000Y-135175000D01*
X208475000Y-135175000D01*
X208499504Y-135176204D01*
X208499504Y-135176204D01*
G37*
D16*
X208100000Y-136500000D03*
D10*
G36*
X211299504Y-135176204D02*
X211323773Y-135179804D01*
X211347571Y-135185765D01*
X211370671Y-135194030D01*
X211392849Y-135204520D01*
X211413893Y-135217133D01*
X211433598Y-135231747D01*
X211451777Y-135248223D01*
X211468253Y-135266402D01*
X211482867Y-135286107D01*
X211495480Y-135307151D01*
X211505970Y-135329329D01*
X211514235Y-135352429D01*
X211520196Y-135376227D01*
X211523796Y-135400496D01*
X211525000Y-135425000D01*
X211525000Y-137575000D01*
X211523796Y-137599504D01*
X211520196Y-137623773D01*
X211514235Y-137647571D01*
X211505970Y-137670671D01*
X211495480Y-137692849D01*
X211482867Y-137713893D01*
X211468253Y-137733598D01*
X211451777Y-137751777D01*
X211433598Y-137768253D01*
X211413893Y-137782867D01*
X211392849Y-137795480D01*
X211370671Y-137805970D01*
X211347571Y-137814235D01*
X211323773Y-137820196D01*
X211299504Y-137823796D01*
X211275000Y-137825000D01*
X210525000Y-137825000D01*
X210500496Y-137823796D01*
X210476227Y-137820196D01*
X210452429Y-137814235D01*
X210429329Y-137805970D01*
X210407151Y-137795480D01*
X210386107Y-137782867D01*
X210366402Y-137768253D01*
X210348223Y-137751777D01*
X210331747Y-137733598D01*
X210317133Y-137713893D01*
X210304520Y-137692849D01*
X210294030Y-137670671D01*
X210285765Y-137647571D01*
X210279804Y-137623773D01*
X210276204Y-137599504D01*
X210275000Y-137575000D01*
X210275000Y-135425000D01*
X210276204Y-135400496D01*
X210279804Y-135376227D01*
X210285765Y-135352429D01*
X210294030Y-135329329D01*
X210304520Y-135307151D01*
X210317133Y-135286107D01*
X210331747Y-135266402D01*
X210348223Y-135248223D01*
X210366402Y-135231747D01*
X210386107Y-135217133D01*
X210407151Y-135204520D01*
X210429329Y-135194030D01*
X210452429Y-135185765D01*
X210476227Y-135179804D01*
X210500496Y-135176204D01*
X210525000Y-135175000D01*
X211275000Y-135175000D01*
X211299504Y-135176204D01*
X211299504Y-135176204D01*
G37*
D16*
X210900000Y-136500000D03*
G04 #@! TD*
D21*
G04 #@! TO.C,R31*
X205500000Y-129712500D03*
X205500000Y-131287500D03*
G04 #@! TD*
G04 #@! TO.C,R32*
X212750000Y-134037500D03*
X212750000Y-132462500D03*
G04 #@! TD*
G04 #@! TO.C,R33*
X212750000Y-129212500D03*
X212750000Y-130787500D03*
G04 #@! TD*
D18*
G04 #@! TO.C,U3*
X210100000Y-131950000D03*
X210100000Y-131000000D03*
X210100000Y-130050000D03*
X207900000Y-130050000D03*
X207900000Y-131950000D03*
X207900000Y-131000000D03*
G04 #@! TD*
D10*
G04 #@! TO.C,C32*
G36*
X204277691Y-129276053D02*
X204298926Y-129279203D01*
X204319750Y-129284419D01*
X204339962Y-129291651D01*
X204359368Y-129300830D01*
X204377781Y-129311866D01*
X204395024Y-129324654D01*
X204410930Y-129339070D01*
X204425346Y-129354976D01*
X204438134Y-129372219D01*
X204449170Y-129390632D01*
X204458349Y-129410038D01*
X204465581Y-129430250D01*
X204470797Y-129451074D01*
X204473947Y-129472309D01*
X204475000Y-129493750D01*
X204475000Y-129931250D01*
X204473947Y-129952691D01*
X204470797Y-129973926D01*
X204465581Y-129994750D01*
X204458349Y-130014962D01*
X204449170Y-130034368D01*
X204438134Y-130052781D01*
X204425346Y-130070024D01*
X204410930Y-130085930D01*
X204395024Y-130100346D01*
X204377781Y-130113134D01*
X204359368Y-130124170D01*
X204339962Y-130133349D01*
X204319750Y-130140581D01*
X204298926Y-130145797D01*
X204277691Y-130148947D01*
X204256250Y-130150000D01*
X203743750Y-130150000D01*
X203722309Y-130148947D01*
X203701074Y-130145797D01*
X203680250Y-130140581D01*
X203660038Y-130133349D01*
X203640632Y-130124170D01*
X203622219Y-130113134D01*
X203604976Y-130100346D01*
X203589070Y-130085930D01*
X203574654Y-130070024D01*
X203561866Y-130052781D01*
X203550830Y-130034368D01*
X203541651Y-130014962D01*
X203534419Y-129994750D01*
X203529203Y-129973926D01*
X203526053Y-129952691D01*
X203525000Y-129931250D01*
X203525000Y-129493750D01*
X203526053Y-129472309D01*
X203529203Y-129451074D01*
X203534419Y-129430250D01*
X203541651Y-129410038D01*
X203550830Y-129390632D01*
X203561866Y-129372219D01*
X203574654Y-129354976D01*
X203589070Y-129339070D01*
X203604976Y-129324654D01*
X203622219Y-129311866D01*
X203640632Y-129300830D01*
X203660038Y-129291651D01*
X203680250Y-129284419D01*
X203701074Y-129279203D01*
X203722309Y-129276053D01*
X203743750Y-129275000D01*
X204256250Y-129275000D01*
X204277691Y-129276053D01*
X204277691Y-129276053D01*
G37*
D15*
X204000000Y-129712500D03*
D10*
G36*
X204277691Y-130851053D02*
X204298926Y-130854203D01*
X204319750Y-130859419D01*
X204339962Y-130866651D01*
X204359368Y-130875830D01*
X204377781Y-130886866D01*
X204395024Y-130899654D01*
X204410930Y-130914070D01*
X204425346Y-130929976D01*
X204438134Y-130947219D01*
X204449170Y-130965632D01*
X204458349Y-130985038D01*
X204465581Y-131005250D01*
X204470797Y-131026074D01*
X204473947Y-131047309D01*
X204475000Y-131068750D01*
X204475000Y-131506250D01*
X204473947Y-131527691D01*
X204470797Y-131548926D01*
X204465581Y-131569750D01*
X204458349Y-131589962D01*
X204449170Y-131609368D01*
X204438134Y-131627781D01*
X204425346Y-131645024D01*
X204410930Y-131660930D01*
X204395024Y-131675346D01*
X204377781Y-131688134D01*
X204359368Y-131699170D01*
X204339962Y-131708349D01*
X204319750Y-131715581D01*
X204298926Y-131720797D01*
X204277691Y-131723947D01*
X204256250Y-131725000D01*
X203743750Y-131725000D01*
X203722309Y-131723947D01*
X203701074Y-131720797D01*
X203680250Y-131715581D01*
X203660038Y-131708349D01*
X203640632Y-131699170D01*
X203622219Y-131688134D01*
X203604976Y-131675346D01*
X203589070Y-131660930D01*
X203574654Y-131645024D01*
X203561866Y-131627781D01*
X203550830Y-131609368D01*
X203541651Y-131589962D01*
X203534419Y-131569750D01*
X203529203Y-131548926D01*
X203526053Y-131527691D01*
X203525000Y-131506250D01*
X203525000Y-131068750D01*
X203526053Y-131047309D01*
X203529203Y-131026074D01*
X203534419Y-131005250D01*
X203541651Y-130985038D01*
X203550830Y-130965632D01*
X203561866Y-130947219D01*
X203574654Y-130929976D01*
X203589070Y-130914070D01*
X203604976Y-130899654D01*
X203622219Y-130886866D01*
X203640632Y-130875830D01*
X203660038Y-130866651D01*
X203680250Y-130859419D01*
X203701074Y-130854203D01*
X203722309Y-130851053D01*
X203743750Y-130850000D01*
X204256250Y-130850000D01*
X204277691Y-130851053D01*
X204277691Y-130851053D01*
G37*
D15*
X204000000Y-131287500D03*
G04 #@! TD*
D10*
G04 #@! TO.C,C12*
G36*
X231077691Y-80326053D02*
X231098926Y-80329203D01*
X231119750Y-80334419D01*
X231139962Y-80341651D01*
X231159368Y-80350830D01*
X231177781Y-80361866D01*
X231195024Y-80374654D01*
X231210930Y-80389070D01*
X231225346Y-80404976D01*
X231238134Y-80422219D01*
X231249170Y-80440632D01*
X231258349Y-80460038D01*
X231265581Y-80480250D01*
X231270797Y-80501074D01*
X231273947Y-80522309D01*
X231275000Y-80543750D01*
X231275000Y-80981250D01*
X231273947Y-81002691D01*
X231270797Y-81023926D01*
X231265581Y-81044750D01*
X231258349Y-81064962D01*
X231249170Y-81084368D01*
X231238134Y-81102781D01*
X231225346Y-81120024D01*
X231210930Y-81135930D01*
X231195024Y-81150346D01*
X231177781Y-81163134D01*
X231159368Y-81174170D01*
X231139962Y-81183349D01*
X231119750Y-81190581D01*
X231098926Y-81195797D01*
X231077691Y-81198947D01*
X231056250Y-81200000D01*
X230543750Y-81200000D01*
X230522309Y-81198947D01*
X230501074Y-81195797D01*
X230480250Y-81190581D01*
X230460038Y-81183349D01*
X230440632Y-81174170D01*
X230422219Y-81163134D01*
X230404976Y-81150346D01*
X230389070Y-81135930D01*
X230374654Y-81120024D01*
X230361866Y-81102781D01*
X230350830Y-81084368D01*
X230341651Y-81064962D01*
X230334419Y-81044750D01*
X230329203Y-81023926D01*
X230326053Y-81002691D01*
X230325000Y-80981250D01*
X230325000Y-80543750D01*
X230326053Y-80522309D01*
X230329203Y-80501074D01*
X230334419Y-80480250D01*
X230341651Y-80460038D01*
X230350830Y-80440632D01*
X230361866Y-80422219D01*
X230374654Y-80404976D01*
X230389070Y-80389070D01*
X230404976Y-80374654D01*
X230422219Y-80361866D01*
X230440632Y-80350830D01*
X230460038Y-80341651D01*
X230480250Y-80334419D01*
X230501074Y-80329203D01*
X230522309Y-80326053D01*
X230543750Y-80325000D01*
X231056250Y-80325000D01*
X231077691Y-80326053D01*
X231077691Y-80326053D01*
G37*
D15*
X230800000Y-80762500D03*
D10*
G36*
X231077691Y-81901053D02*
X231098926Y-81904203D01*
X231119750Y-81909419D01*
X231139962Y-81916651D01*
X231159368Y-81925830D01*
X231177781Y-81936866D01*
X231195024Y-81949654D01*
X231210930Y-81964070D01*
X231225346Y-81979976D01*
X231238134Y-81997219D01*
X231249170Y-82015632D01*
X231258349Y-82035038D01*
X231265581Y-82055250D01*
X231270797Y-82076074D01*
X231273947Y-82097309D01*
X231275000Y-82118750D01*
X231275000Y-82556250D01*
X231273947Y-82577691D01*
X231270797Y-82598926D01*
X231265581Y-82619750D01*
X231258349Y-82639962D01*
X231249170Y-82659368D01*
X231238134Y-82677781D01*
X231225346Y-82695024D01*
X231210930Y-82710930D01*
X231195024Y-82725346D01*
X231177781Y-82738134D01*
X231159368Y-82749170D01*
X231139962Y-82758349D01*
X231119750Y-82765581D01*
X231098926Y-82770797D01*
X231077691Y-82773947D01*
X231056250Y-82775000D01*
X230543750Y-82775000D01*
X230522309Y-82773947D01*
X230501074Y-82770797D01*
X230480250Y-82765581D01*
X230460038Y-82758349D01*
X230440632Y-82749170D01*
X230422219Y-82738134D01*
X230404976Y-82725346D01*
X230389070Y-82710930D01*
X230374654Y-82695024D01*
X230361866Y-82677781D01*
X230350830Y-82659368D01*
X230341651Y-82639962D01*
X230334419Y-82619750D01*
X230329203Y-82598926D01*
X230326053Y-82577691D01*
X230325000Y-82556250D01*
X230325000Y-82118750D01*
X230326053Y-82097309D01*
X230329203Y-82076074D01*
X230334419Y-82055250D01*
X230341651Y-82035038D01*
X230350830Y-82015632D01*
X230361866Y-81997219D01*
X230374654Y-81979976D01*
X230389070Y-81964070D01*
X230404976Y-81949654D01*
X230422219Y-81936866D01*
X230440632Y-81925830D01*
X230460038Y-81916651D01*
X230480250Y-81909419D01*
X230501074Y-81904203D01*
X230522309Y-81901053D01*
X230543750Y-81900000D01*
X231056250Y-81900000D01*
X231077691Y-81901053D01*
X231077691Y-81901053D01*
G37*
D15*
X230800000Y-82337500D03*
G04 #@! TD*
D10*
G04 #@! TO.C,C11*
G36*
X232577691Y-81901053D02*
X232598926Y-81904203D01*
X232619750Y-81909419D01*
X232639962Y-81916651D01*
X232659368Y-81925830D01*
X232677781Y-81936866D01*
X232695024Y-81949654D01*
X232710930Y-81964070D01*
X232725346Y-81979976D01*
X232738134Y-81997219D01*
X232749170Y-82015632D01*
X232758349Y-82035038D01*
X232765581Y-82055250D01*
X232770797Y-82076074D01*
X232773947Y-82097309D01*
X232775000Y-82118750D01*
X232775000Y-82556250D01*
X232773947Y-82577691D01*
X232770797Y-82598926D01*
X232765581Y-82619750D01*
X232758349Y-82639962D01*
X232749170Y-82659368D01*
X232738134Y-82677781D01*
X232725346Y-82695024D01*
X232710930Y-82710930D01*
X232695024Y-82725346D01*
X232677781Y-82738134D01*
X232659368Y-82749170D01*
X232639962Y-82758349D01*
X232619750Y-82765581D01*
X232598926Y-82770797D01*
X232577691Y-82773947D01*
X232556250Y-82775000D01*
X232043750Y-82775000D01*
X232022309Y-82773947D01*
X232001074Y-82770797D01*
X231980250Y-82765581D01*
X231960038Y-82758349D01*
X231940632Y-82749170D01*
X231922219Y-82738134D01*
X231904976Y-82725346D01*
X231889070Y-82710930D01*
X231874654Y-82695024D01*
X231861866Y-82677781D01*
X231850830Y-82659368D01*
X231841651Y-82639962D01*
X231834419Y-82619750D01*
X231829203Y-82598926D01*
X231826053Y-82577691D01*
X231825000Y-82556250D01*
X231825000Y-82118750D01*
X231826053Y-82097309D01*
X231829203Y-82076074D01*
X231834419Y-82055250D01*
X231841651Y-82035038D01*
X231850830Y-82015632D01*
X231861866Y-81997219D01*
X231874654Y-81979976D01*
X231889070Y-81964070D01*
X231904976Y-81949654D01*
X231922219Y-81936866D01*
X231940632Y-81925830D01*
X231960038Y-81916651D01*
X231980250Y-81909419D01*
X232001074Y-81904203D01*
X232022309Y-81901053D01*
X232043750Y-81900000D01*
X232556250Y-81900000D01*
X232577691Y-81901053D01*
X232577691Y-81901053D01*
G37*
D15*
X232300000Y-82337500D03*
D10*
G36*
X232577691Y-80326053D02*
X232598926Y-80329203D01*
X232619750Y-80334419D01*
X232639962Y-80341651D01*
X232659368Y-80350830D01*
X232677781Y-80361866D01*
X232695024Y-80374654D01*
X232710930Y-80389070D01*
X232725346Y-80404976D01*
X232738134Y-80422219D01*
X232749170Y-80440632D01*
X232758349Y-80460038D01*
X232765581Y-80480250D01*
X232770797Y-80501074D01*
X232773947Y-80522309D01*
X232775000Y-80543750D01*
X232775000Y-80981250D01*
X232773947Y-81002691D01*
X232770797Y-81023926D01*
X232765581Y-81044750D01*
X232758349Y-81064962D01*
X232749170Y-81084368D01*
X232738134Y-81102781D01*
X232725346Y-81120024D01*
X232710930Y-81135930D01*
X232695024Y-81150346D01*
X232677781Y-81163134D01*
X232659368Y-81174170D01*
X232639962Y-81183349D01*
X232619750Y-81190581D01*
X232598926Y-81195797D01*
X232577691Y-81198947D01*
X232556250Y-81200000D01*
X232043750Y-81200000D01*
X232022309Y-81198947D01*
X232001074Y-81195797D01*
X231980250Y-81190581D01*
X231960038Y-81183349D01*
X231940632Y-81174170D01*
X231922219Y-81163134D01*
X231904976Y-81150346D01*
X231889070Y-81135930D01*
X231874654Y-81120024D01*
X231861866Y-81102781D01*
X231850830Y-81084368D01*
X231841651Y-81064962D01*
X231834419Y-81044750D01*
X231829203Y-81023926D01*
X231826053Y-81002691D01*
X231825000Y-80981250D01*
X231825000Y-80543750D01*
X231826053Y-80522309D01*
X231829203Y-80501074D01*
X231834419Y-80480250D01*
X231841651Y-80460038D01*
X231850830Y-80440632D01*
X231861866Y-80422219D01*
X231874654Y-80404976D01*
X231889070Y-80389070D01*
X231904976Y-80374654D01*
X231922219Y-80361866D01*
X231940632Y-80350830D01*
X231960038Y-80341651D01*
X231980250Y-80334419D01*
X232001074Y-80329203D01*
X232022309Y-80326053D01*
X232043750Y-80325000D01*
X232556250Y-80325000D01*
X232577691Y-80326053D01*
X232577691Y-80326053D01*
G37*
D15*
X232300000Y-80762500D03*
G04 #@! TD*
D10*
G04 #@! TO.C,C34*
G36*
X213027691Y-135276053D02*
X213048926Y-135279203D01*
X213069750Y-135284419D01*
X213089962Y-135291651D01*
X213109368Y-135300830D01*
X213127781Y-135311866D01*
X213145024Y-135324654D01*
X213160930Y-135339070D01*
X213175346Y-135354976D01*
X213188134Y-135372219D01*
X213199170Y-135390632D01*
X213208349Y-135410038D01*
X213215581Y-135430250D01*
X213220797Y-135451074D01*
X213223947Y-135472309D01*
X213225000Y-135493750D01*
X213225000Y-135931250D01*
X213223947Y-135952691D01*
X213220797Y-135973926D01*
X213215581Y-135994750D01*
X213208349Y-136014962D01*
X213199170Y-136034368D01*
X213188134Y-136052781D01*
X213175346Y-136070024D01*
X213160930Y-136085930D01*
X213145024Y-136100346D01*
X213127781Y-136113134D01*
X213109368Y-136124170D01*
X213089962Y-136133349D01*
X213069750Y-136140581D01*
X213048926Y-136145797D01*
X213027691Y-136148947D01*
X213006250Y-136150000D01*
X212493750Y-136150000D01*
X212472309Y-136148947D01*
X212451074Y-136145797D01*
X212430250Y-136140581D01*
X212410038Y-136133349D01*
X212390632Y-136124170D01*
X212372219Y-136113134D01*
X212354976Y-136100346D01*
X212339070Y-136085930D01*
X212324654Y-136070024D01*
X212311866Y-136052781D01*
X212300830Y-136034368D01*
X212291651Y-136014962D01*
X212284419Y-135994750D01*
X212279203Y-135973926D01*
X212276053Y-135952691D01*
X212275000Y-135931250D01*
X212275000Y-135493750D01*
X212276053Y-135472309D01*
X212279203Y-135451074D01*
X212284419Y-135430250D01*
X212291651Y-135410038D01*
X212300830Y-135390632D01*
X212311866Y-135372219D01*
X212324654Y-135354976D01*
X212339070Y-135339070D01*
X212354976Y-135324654D01*
X212372219Y-135311866D01*
X212390632Y-135300830D01*
X212410038Y-135291651D01*
X212430250Y-135284419D01*
X212451074Y-135279203D01*
X212472309Y-135276053D01*
X212493750Y-135275000D01*
X213006250Y-135275000D01*
X213027691Y-135276053D01*
X213027691Y-135276053D01*
G37*
D15*
X212750000Y-135712500D03*
D10*
G36*
X213027691Y-136851053D02*
X213048926Y-136854203D01*
X213069750Y-136859419D01*
X213089962Y-136866651D01*
X213109368Y-136875830D01*
X213127781Y-136886866D01*
X213145024Y-136899654D01*
X213160930Y-136914070D01*
X213175346Y-136929976D01*
X213188134Y-136947219D01*
X213199170Y-136965632D01*
X213208349Y-136985038D01*
X213215581Y-137005250D01*
X213220797Y-137026074D01*
X213223947Y-137047309D01*
X213225000Y-137068750D01*
X213225000Y-137506250D01*
X213223947Y-137527691D01*
X213220797Y-137548926D01*
X213215581Y-137569750D01*
X213208349Y-137589962D01*
X213199170Y-137609368D01*
X213188134Y-137627781D01*
X213175346Y-137645024D01*
X213160930Y-137660930D01*
X213145024Y-137675346D01*
X213127781Y-137688134D01*
X213109368Y-137699170D01*
X213089962Y-137708349D01*
X213069750Y-137715581D01*
X213048926Y-137720797D01*
X213027691Y-137723947D01*
X213006250Y-137725000D01*
X212493750Y-137725000D01*
X212472309Y-137723947D01*
X212451074Y-137720797D01*
X212430250Y-137715581D01*
X212410038Y-137708349D01*
X212390632Y-137699170D01*
X212372219Y-137688134D01*
X212354976Y-137675346D01*
X212339070Y-137660930D01*
X212324654Y-137645024D01*
X212311866Y-137627781D01*
X212300830Y-137609368D01*
X212291651Y-137589962D01*
X212284419Y-137569750D01*
X212279203Y-137548926D01*
X212276053Y-137527691D01*
X212275000Y-137506250D01*
X212275000Y-137068750D01*
X212276053Y-137047309D01*
X212279203Y-137026074D01*
X212284419Y-137005250D01*
X212291651Y-136985038D01*
X212300830Y-136965632D01*
X212311866Y-136947219D01*
X212324654Y-136929976D01*
X212339070Y-136914070D01*
X212354976Y-136899654D01*
X212372219Y-136886866D01*
X212390632Y-136875830D01*
X212410038Y-136866651D01*
X212430250Y-136859419D01*
X212451074Y-136854203D01*
X212472309Y-136851053D01*
X212493750Y-136850000D01*
X213006250Y-136850000D01*
X213027691Y-136851053D01*
X213027691Y-136851053D01*
G37*
D15*
X212750000Y-137287500D03*
G04 #@! TD*
D10*
G04 #@! TO.C,C41*
G36*
X252049515Y-139428908D02*
X252070750Y-139432058D01*
X252091574Y-139437274D01*
X252111786Y-139444506D01*
X252131192Y-139453685D01*
X252149605Y-139464721D01*
X252166848Y-139477509D01*
X252182754Y-139491925D01*
X252197170Y-139507831D01*
X252209958Y-139525074D01*
X252220994Y-139543487D01*
X252230173Y-139562893D01*
X252237405Y-139583105D01*
X252242621Y-139603929D01*
X252245771Y-139625164D01*
X252246824Y-139646605D01*
X252246824Y-140159105D01*
X252245771Y-140180546D01*
X252242621Y-140201781D01*
X252237405Y-140222605D01*
X252230173Y-140242817D01*
X252220994Y-140262223D01*
X252209958Y-140280636D01*
X252197170Y-140297879D01*
X252182754Y-140313785D01*
X252166848Y-140328201D01*
X252149605Y-140340989D01*
X252131192Y-140352025D01*
X252111786Y-140361204D01*
X252091574Y-140368436D01*
X252070750Y-140373652D01*
X252049515Y-140376802D01*
X252028074Y-140377855D01*
X251590574Y-140377855D01*
X251569133Y-140376802D01*
X251547898Y-140373652D01*
X251527074Y-140368436D01*
X251506862Y-140361204D01*
X251487456Y-140352025D01*
X251469043Y-140340989D01*
X251451800Y-140328201D01*
X251435894Y-140313785D01*
X251421478Y-140297879D01*
X251408690Y-140280636D01*
X251397654Y-140262223D01*
X251388475Y-140242817D01*
X251381243Y-140222605D01*
X251376027Y-140201781D01*
X251372877Y-140180546D01*
X251371824Y-140159105D01*
X251371824Y-139646605D01*
X251372877Y-139625164D01*
X251376027Y-139603929D01*
X251381243Y-139583105D01*
X251388475Y-139562893D01*
X251397654Y-139543487D01*
X251408690Y-139525074D01*
X251421478Y-139507831D01*
X251435894Y-139491925D01*
X251451800Y-139477509D01*
X251469043Y-139464721D01*
X251487456Y-139453685D01*
X251506862Y-139444506D01*
X251527074Y-139437274D01*
X251547898Y-139432058D01*
X251569133Y-139428908D01*
X251590574Y-139427855D01*
X252028074Y-139427855D01*
X252049515Y-139428908D01*
X252049515Y-139428908D01*
G37*
D15*
X251809324Y-139902855D03*
D10*
G36*
X250474515Y-139428908D02*
X250495750Y-139432058D01*
X250516574Y-139437274D01*
X250536786Y-139444506D01*
X250556192Y-139453685D01*
X250574605Y-139464721D01*
X250591848Y-139477509D01*
X250607754Y-139491925D01*
X250622170Y-139507831D01*
X250634958Y-139525074D01*
X250645994Y-139543487D01*
X250655173Y-139562893D01*
X250662405Y-139583105D01*
X250667621Y-139603929D01*
X250670771Y-139625164D01*
X250671824Y-139646605D01*
X250671824Y-140159105D01*
X250670771Y-140180546D01*
X250667621Y-140201781D01*
X250662405Y-140222605D01*
X250655173Y-140242817D01*
X250645994Y-140262223D01*
X250634958Y-140280636D01*
X250622170Y-140297879D01*
X250607754Y-140313785D01*
X250591848Y-140328201D01*
X250574605Y-140340989D01*
X250556192Y-140352025D01*
X250536786Y-140361204D01*
X250516574Y-140368436D01*
X250495750Y-140373652D01*
X250474515Y-140376802D01*
X250453074Y-140377855D01*
X250015574Y-140377855D01*
X249994133Y-140376802D01*
X249972898Y-140373652D01*
X249952074Y-140368436D01*
X249931862Y-140361204D01*
X249912456Y-140352025D01*
X249894043Y-140340989D01*
X249876800Y-140328201D01*
X249860894Y-140313785D01*
X249846478Y-140297879D01*
X249833690Y-140280636D01*
X249822654Y-140262223D01*
X249813475Y-140242817D01*
X249806243Y-140222605D01*
X249801027Y-140201781D01*
X249797877Y-140180546D01*
X249796824Y-140159105D01*
X249796824Y-139646605D01*
X249797877Y-139625164D01*
X249801027Y-139603929D01*
X249806243Y-139583105D01*
X249813475Y-139562893D01*
X249822654Y-139543487D01*
X249833690Y-139525074D01*
X249846478Y-139507831D01*
X249860894Y-139491925D01*
X249876800Y-139477509D01*
X249894043Y-139464721D01*
X249912456Y-139453685D01*
X249931862Y-139444506D01*
X249952074Y-139437274D01*
X249972898Y-139432058D01*
X249994133Y-139428908D01*
X250015574Y-139427855D01*
X250453074Y-139427855D01*
X250474515Y-139428908D01*
X250474515Y-139428908D01*
G37*
D15*
X250234324Y-139902855D03*
G04 #@! TD*
D21*
G04 #@! TO.C,R8*
X196700000Y-88712500D03*
X196700000Y-90287500D03*
G04 #@! TD*
G04 #@! TO.C,R9*
X196700000Y-98787500D03*
X196700000Y-97212500D03*
G04 #@! TD*
G04 #@! TO.C,R3*
X196700000Y-125712500D03*
X196700000Y-127287500D03*
G04 #@! TD*
D23*
G04 #@! TO.C,Q10*
X191500000Y-126500000D03*
X193500000Y-127450000D03*
X193500000Y-125550000D03*
G04 #@! TD*
G04 #@! TO.C,Q9*
X193500000Y-97050000D03*
X193500000Y-98950000D03*
X191500000Y-98000000D03*
G04 #@! TD*
G04 #@! TO.C,Q8*
X191500000Y-89500000D03*
X193500000Y-90450000D03*
X193500000Y-88550000D03*
G04 #@! TD*
G04 #@! TO.C,Q7*
X193500000Y-80050000D03*
X193500000Y-81950000D03*
X191500000Y-81000000D03*
G04 #@! TD*
D24*
G04 #@! TO.C,U4*
X251771824Y-134802855D03*
X251271824Y-134802855D03*
X250771824Y-134802855D03*
X250271824Y-134802855D03*
X250271824Y-137202855D03*
X250771824Y-137202855D03*
X251271824Y-137202855D03*
X251771824Y-137202855D03*
D25*
X251021824Y-136002855D03*
G04 #@! TD*
M02*
