M48
;DRILL file {KiCad 5.0.2-bee76a0~70~ubuntu18.04.1} date Fri 19 Jul 2019 10:36:41 CEST
;FORMAT={-:-/ absolute / metric / decimal}
FMAT,2
METRIC,TZ
T1C0.400
T2C0.700
T3C0.900
T4C1.000
T5C1.200
T6C2.200
%
G90
G05
T1
X192.5Y-92.5
X192.75Y-101.25
X192.75Y-104.25
X192.75Y-112.5
X192.75Y-117.5
X192.75Y-122.5
X193.Y-72.
X193.Y-77.5
X193.Y-83.5
X193.Y-129.
X195.25Y-84.
X197.5Y-91.75
X197.5Y-95.25
X197.5Y-112.5
X197.5Y-117.5
X197.5Y-122.5
X198.Y-99.75
X198.Y-104.25
X198.25Y-86.75
X198.5Y-128.5
X198.75Y-84.
X200.Y-80.
X200.25Y-91.75
X200.25Y-95.25
X200.25Y-99.75
X200.25Y-104.25
X201.Y-83.
X202.5Y-112.5
X202.5Y-117.5
X202.5Y-122.5
X203.Y-94.
X203.5Y-133.
X203.5Y-135.5
X203.5Y-140.5
X203.5Y-145.5
X205.Y-80.
X205.Y-85.
X205.Y-90.
X205.Y-97.5
X205.Y-127.5
X205.5Y-145.5
X207.5Y-105.
X207.5Y-112.5
X207.5Y-117.5
X209.Y-140.5
X210.Y-80.
X210.Y-85.
X210.Y-90.
X210.Y-97.5
X210.Y-125.
X211.45Y-131.
X211.5Y-133.25
X212.Y-145.
X212.Y-147.5
X212.5Y-105.
X212.5Y-112.5
X212.5Y-117.5
X213.Y-139.5
X213.Y-143.5
X215.Y-80.
X215.Y-85.
X215.Y-90.
X215.Y-97.5
X215.Y-110.
X215.Y-125.
X215.75Y-143.5
X216.Y-139.5
X216.25Y-132.5
X217.5Y-117.5
X218.Y-139.5
X218.Y-143.5
X220.Y-80.
X220.Y-85.
X220.Y-90.
X220.Y-97.5
X220.Y-105.
X220.Y-117.5
X220.Y-122.5
X220.Y-132.5
X220.Y-135.5
X220.5Y-139.5
X220.5Y-143.5
X220.5Y-146.5
X223.Y-138.
X223.25Y-135.25
X223.5Y-126.
X223.5Y-128.
X223.5Y-131.25
X225.Y-80.
X225.Y-85.
X225.Y-90.
X225.Y-97.5
X225.Y-105.
X225.Y-117.5
X225.Y-122.5
X225.Y-135.25
X225.Y-138.
X225.25Y-146.5
X226.25Y-123.
X226.25Y-125.5
X227.Y-94.
X228.Y-136.
X228.Y-138.25
X228.5Y-126.
X228.5Y-128.
X229.Y-101.
X229.Y-103.
X229.Y-106.5
X229.1Y-80.75
X229.1Y-95.25
X230.Y-117.5
X230.Y-122.
X230.Y-139.5
X230.Y-143.25
X230.Y-146.5
X231.Y-90.
X231.Y-94.9
X231.Y-97.5
X231.5Y-84.6
X232.Y-102.6
X232.5Y-112.5
X232.5Y-137.
X232.8Y-101.
X233.25Y-122.
X233.5Y-126.
X233.5Y-130.
X233.55Y-102.6
X233.75Y-79.5
X234.5Y-103.5
X234.5Y-106.5
X234.5Y-109.75
X234.5Y-112.
X234.5Y-115.
X234.5Y-120.
X236.75Y-97.5
X237.47Y-101.47
X237.5Y-123.
X238.Y-106.5
X238.Y-109.75
X238.Y-112.
X238.Y-115.
X238.Y-120.
X238.5Y-137.
X240.Y-101.5
X240.5Y-126.
X240.5Y-130.
X240.6Y-98.8
X241.75Y-122.75
X242.7Y-101.6
X244.Y-126.
X244.5Y-98.8
X244.9Y-135.3
X245.Y-106.5
X245.Y-112.5
X245.Y-115.5
X245.Y-137.
X245.Y-142.5
X245.Y-147.5
X246.5Y-133.75
X246.85Y-113.9
X249.Y-107.
X249.Y-110.
X249.Y-117.
X249.Y-120.
X249.Y-123.
X249.1Y-129.275
X249.467Y-126.029
X249.8Y-128.2
X250.Y-142.5
X250.Y-147.5
X250.75Y-102.75
X252.Y-117.
X252.Y-120.
X252.Y-123.
X252.Y-126.05
X252.245Y-110.
X252.5Y-142.5
X252.5Y-147.5
X254.05Y-113.9
X255.45Y-85.85
X255.45Y-88.4
X255.45Y-89.65
X255.487Y-99.5
X255.75Y-79.5
X256.5Y-84.6
X257.5Y-105.
X257.5Y-110.
X257.5Y-115.
X257.5Y-120.
X257.5Y-127.5
X257.5Y-132.5
X257.5Y-137.5
X257.5Y-142.5
X257.5Y-147.5
X257.5Y-83.3
X258.5Y-85.5
X258.5Y-92.5
X258.5Y-99.5
T2
X208.Y-146.3
X209.5Y-146.3
X214.5Y-146.3
X216.Y-146.3
X217.5Y-146.3
T3
X187.7Y-95.5
X187.7Y-98.
X187.7Y-124.
X187.7Y-126.5
X187.7Y-87.
X187.7Y-89.5
X187.7Y-78.5
X187.7Y-81.
T4
X236.75Y-104.
X239.29Y-104.
X241.83Y-104.
X244.37Y-104.
X246.91Y-104.
X249.45Y-104.
T5
X237.Y-143.6
T6
X233.7Y-140.3
X233.7Y-146.9
X240.3Y-140.3
X240.3Y-146.9
T4
X195.Y-138.3G85X197.Y-138.3
G05
X195.Y-144.3G85X197.Y-144.3
G05
X200.7Y-142.3G85X200.7Y-140.3
G05
T0
M30
