G04 #@! TF.GenerationSoftware,KiCad,Pcbnew,5.0.2-bee76a0~70~ubuntu18.04.1*
G04 #@! TF.CreationDate,2019-07-19T10:36:36+02:00*
G04 #@! TF.ProjectId,SmartHydroponics,536d6172-7448-4796-9472-6f706f6e6963,rev?*
G04 #@! TF.SameCoordinates,Original*
G04 #@! TF.FileFunction,Soldermask,Top*
G04 #@! TF.FilePolarity,Negative*
%FSLAX46Y46*%
G04 Gerber Fmt 4.6, Leading zero omitted, Abs format (unit mm)*
G04 Created by KiCad (PCBNEW 5.0.2-bee76a0~70~ubuntu18.04.1) date Fri 19 Jul 2019 10:36:36 CEST*
%MOMM*%
%LPD*%
G01*
G04 APERTURE LIST*
%ADD10C,0.100000*%
G04 APERTURE END LIST*
D10*
G36*
X234269083Y-145023975D02*
X234269085Y-145023976D01*
X234269086Y-145023976D01*
X234624145Y-145171046D01*
X234925300Y-145372271D01*
X234943693Y-145384561D01*
X235215439Y-145656307D01*
X235215441Y-145656310D01*
X235428954Y-145975855D01*
X235555934Y-146282413D01*
X235576025Y-146330917D01*
X235639693Y-146651000D01*
X235651000Y-146707843D01*
X235651000Y-147092157D01*
X235576024Y-147469086D01*
X235428954Y-147824145D01*
X235428953Y-147824146D01*
X235215439Y-148143693D01*
X234943693Y-148415439D01*
X234943690Y-148415441D01*
X234624145Y-148628954D01*
X234269086Y-148776024D01*
X234269085Y-148776024D01*
X234269083Y-148776025D01*
X233892158Y-148851000D01*
X233507842Y-148851000D01*
X233130917Y-148776025D01*
X233130915Y-148776024D01*
X233130914Y-148776024D01*
X232775855Y-148628954D01*
X232456310Y-148415441D01*
X232456307Y-148415439D01*
X232184561Y-148143693D01*
X231971047Y-147824146D01*
X231971046Y-147824145D01*
X231823976Y-147469086D01*
X231749000Y-147092157D01*
X231749000Y-146707843D01*
X231760307Y-146651000D01*
X231823975Y-146330917D01*
X231844066Y-146282413D01*
X231971046Y-145975855D01*
X232184559Y-145656310D01*
X232184561Y-145656307D01*
X232456307Y-145384561D01*
X232474700Y-145372271D01*
X232775855Y-145171046D01*
X233130914Y-145023976D01*
X233130915Y-145023976D01*
X233130917Y-145023975D01*
X233507842Y-144949000D01*
X233892158Y-144949000D01*
X234269083Y-145023975D01*
X234269083Y-145023975D01*
G37*
G36*
X240869083Y-145023975D02*
X240869085Y-145023976D01*
X240869086Y-145023976D01*
X241224145Y-145171046D01*
X241525300Y-145372271D01*
X241543693Y-145384561D01*
X241815439Y-145656307D01*
X241815441Y-145656310D01*
X242028954Y-145975855D01*
X242155934Y-146282413D01*
X242176025Y-146330917D01*
X242239693Y-146651000D01*
X242251000Y-146707843D01*
X242251000Y-147092157D01*
X242176024Y-147469086D01*
X242028954Y-147824145D01*
X242028953Y-147824146D01*
X241815439Y-148143693D01*
X241543693Y-148415439D01*
X241543690Y-148415441D01*
X241224145Y-148628954D01*
X240869086Y-148776024D01*
X240869085Y-148776024D01*
X240869083Y-148776025D01*
X240492158Y-148851000D01*
X240107842Y-148851000D01*
X239730917Y-148776025D01*
X239730915Y-148776024D01*
X239730914Y-148776024D01*
X239375855Y-148628954D01*
X239056310Y-148415441D01*
X239056307Y-148415439D01*
X238784561Y-148143693D01*
X238571047Y-147824146D01*
X238571046Y-147824145D01*
X238423976Y-147469086D01*
X238349000Y-147092157D01*
X238349000Y-146707843D01*
X238360307Y-146651000D01*
X238423975Y-146330917D01*
X238444066Y-146282413D01*
X238571046Y-145975855D01*
X238784559Y-145656310D01*
X238784561Y-145656307D01*
X239056307Y-145384561D01*
X239074700Y-145372271D01*
X239375855Y-145171046D01*
X239730914Y-145023976D01*
X239730915Y-145023976D01*
X239730917Y-145023975D01*
X240107842Y-144949000D01*
X240492158Y-144949000D01*
X240869083Y-145023975D01*
X240869083Y-145023975D01*
G37*
G36*
X215151000Y-146020104D02*
X215153402Y-146044490D01*
X215160515Y-146067939D01*
X215172066Y-146089550D01*
X215187612Y-146108492D01*
X215206554Y-146124038D01*
X215228165Y-146135589D01*
X215251614Y-146142702D01*
X215276000Y-146145104D01*
X215300386Y-146142702D01*
X215323835Y-146135589D01*
X215345446Y-146124038D01*
X215364388Y-146108492D01*
X215379934Y-146089550D01*
X215391485Y-146067939D01*
X215423089Y-145991639D01*
X215494338Y-145885008D01*
X215585008Y-145794338D01*
X215691639Y-145723089D01*
X215810110Y-145674017D01*
X215935881Y-145649000D01*
X216064119Y-145649000D01*
X216189890Y-145674017D01*
X216308361Y-145723089D01*
X216414992Y-145794338D01*
X216505662Y-145885008D01*
X216576911Y-145991639D01*
X216625983Y-146110110D01*
X216627402Y-146117245D01*
X216634515Y-146140694D01*
X216646066Y-146162305D01*
X216661611Y-146181247D01*
X216680553Y-146196792D01*
X216702164Y-146208344D01*
X216725613Y-146215457D01*
X216749999Y-146217859D01*
X216774386Y-146215457D01*
X216797835Y-146208344D01*
X216819446Y-146196793D01*
X216838388Y-146181248D01*
X216853933Y-146162306D01*
X216865485Y-146140695D01*
X216872598Y-146117245D01*
X216874017Y-146110110D01*
X216923089Y-145991639D01*
X216994338Y-145885008D01*
X217085008Y-145794338D01*
X217191639Y-145723089D01*
X217310110Y-145674017D01*
X217435881Y-145649000D01*
X217564119Y-145649000D01*
X217689890Y-145674017D01*
X217808361Y-145723089D01*
X217914992Y-145794338D01*
X218005662Y-145885008D01*
X218076911Y-145991639D01*
X218125983Y-146110110D01*
X218151000Y-146235881D01*
X218151000Y-146364119D01*
X218125983Y-146489890D01*
X218076911Y-146608361D01*
X218005662Y-146714992D01*
X217914992Y-146805662D01*
X217808361Y-146876911D01*
X217689890Y-146925983D01*
X217564119Y-146951000D01*
X217435881Y-146951000D01*
X217310110Y-146925983D01*
X217191639Y-146876911D01*
X217085008Y-146805662D01*
X216994338Y-146714992D01*
X216923089Y-146608361D01*
X216874017Y-146489890D01*
X216872598Y-146482755D01*
X216865485Y-146459306D01*
X216853934Y-146437695D01*
X216838389Y-146418753D01*
X216819447Y-146403208D01*
X216797836Y-146391656D01*
X216774387Y-146384543D01*
X216750001Y-146382141D01*
X216725614Y-146384543D01*
X216702165Y-146391656D01*
X216680554Y-146403207D01*
X216661612Y-146418752D01*
X216646067Y-146437694D01*
X216634515Y-146459305D01*
X216627402Y-146482755D01*
X216625983Y-146489890D01*
X216576911Y-146608361D01*
X216505662Y-146714992D01*
X216414992Y-146805662D01*
X216308361Y-146876911D01*
X216189890Y-146925983D01*
X216064119Y-146951000D01*
X215935881Y-146951000D01*
X215810110Y-146925983D01*
X215691639Y-146876911D01*
X215585008Y-146805662D01*
X215494338Y-146714992D01*
X215423089Y-146608361D01*
X215391485Y-146532061D01*
X215379934Y-146510450D01*
X215364389Y-146491508D01*
X215345447Y-146475963D01*
X215323836Y-146464411D01*
X215300387Y-146457298D01*
X215276001Y-146454896D01*
X215251614Y-146457298D01*
X215228165Y-146464411D01*
X215206554Y-146475962D01*
X215187612Y-146491507D01*
X215172067Y-146510449D01*
X215160515Y-146532060D01*
X215153402Y-146555509D01*
X215151000Y-146579896D01*
X215151000Y-146951000D01*
X213849000Y-146951000D01*
X213849000Y-145649000D01*
X215151000Y-145649000D01*
X215151000Y-146020104D01*
X215151000Y-146020104D01*
G37*
G36*
X208651000Y-146020104D02*
X208653402Y-146044490D01*
X208660515Y-146067939D01*
X208672066Y-146089550D01*
X208687612Y-146108492D01*
X208706554Y-146124038D01*
X208728165Y-146135589D01*
X208751614Y-146142702D01*
X208776000Y-146145104D01*
X208800386Y-146142702D01*
X208823835Y-146135589D01*
X208845446Y-146124038D01*
X208864388Y-146108492D01*
X208879934Y-146089550D01*
X208891485Y-146067939D01*
X208923089Y-145991639D01*
X208994338Y-145885008D01*
X209085008Y-145794338D01*
X209191639Y-145723089D01*
X209310110Y-145674017D01*
X209435881Y-145649000D01*
X209564119Y-145649000D01*
X209689890Y-145674017D01*
X209808361Y-145723089D01*
X209914992Y-145794338D01*
X210005662Y-145885008D01*
X210076911Y-145991639D01*
X210125983Y-146110110D01*
X210151000Y-146235881D01*
X210151000Y-146364119D01*
X210125983Y-146489890D01*
X210076911Y-146608361D01*
X210005662Y-146714992D01*
X209914992Y-146805662D01*
X209808361Y-146876911D01*
X209689890Y-146925983D01*
X209564119Y-146951000D01*
X209435881Y-146951000D01*
X209310110Y-146925983D01*
X209191639Y-146876911D01*
X209085008Y-146805662D01*
X208994338Y-146714992D01*
X208923089Y-146608361D01*
X208891485Y-146532061D01*
X208879934Y-146510450D01*
X208864389Y-146491508D01*
X208845447Y-146475963D01*
X208823836Y-146464411D01*
X208800387Y-146457298D01*
X208776001Y-146454896D01*
X208751614Y-146457298D01*
X208728165Y-146464411D01*
X208706554Y-146475962D01*
X208687612Y-146491507D01*
X208672067Y-146510449D01*
X208660515Y-146532060D01*
X208653402Y-146555509D01*
X208651000Y-146579896D01*
X208651000Y-146951000D01*
X207349000Y-146951000D01*
X207349000Y-145649000D01*
X208651000Y-145649000D01*
X208651000Y-146020104D01*
X208651000Y-146020104D01*
G37*
G36*
X255375256Y-143391298D02*
X255481579Y-143412447D01*
X255782042Y-143536903D01*
X256046134Y-143713364D01*
X256052454Y-143717587D01*
X256282413Y-143947546D01*
X256282415Y-143947549D01*
X256463097Y-144217958D01*
X256587553Y-144518421D01*
X256651000Y-144837391D01*
X256651000Y-145162609D01*
X256587553Y-145481579D01*
X256463097Y-145782042D01*
X256394297Y-145885008D01*
X256282413Y-146052454D01*
X256052454Y-146282413D01*
X256052451Y-146282415D01*
X255782042Y-146463097D01*
X255782041Y-146463098D01*
X255782040Y-146463098D01*
X255717358Y-146489890D01*
X255481579Y-146587553D01*
X255376970Y-146608361D01*
X255162611Y-146651000D01*
X254837389Y-146651000D01*
X254623030Y-146608361D01*
X254518421Y-146587553D01*
X254282642Y-146489890D01*
X254217960Y-146463098D01*
X254217959Y-146463098D01*
X254217958Y-146463097D01*
X253947549Y-146282415D01*
X253947546Y-146282413D01*
X253717587Y-146052454D01*
X253605703Y-145885008D01*
X253536903Y-145782042D01*
X253412447Y-145481579D01*
X253349000Y-145162609D01*
X253349000Y-144837391D01*
X253412447Y-144518421D01*
X253536903Y-144217958D01*
X253717585Y-143947549D01*
X253717587Y-143947546D01*
X253947546Y-143717587D01*
X253953866Y-143713364D01*
X254217958Y-143536903D01*
X254518421Y-143412447D01*
X254624744Y-143391298D01*
X254837389Y-143349000D01*
X255162611Y-143349000D01*
X255375256Y-143391298D01*
X255375256Y-143391298D01*
G37*
G36*
X197226978Y-142763293D02*
X197360627Y-142803835D01*
X197483782Y-142869662D01*
X197591739Y-142958261D01*
X197680338Y-143066218D01*
X197746165Y-143189373D01*
X197786707Y-143323022D01*
X197801000Y-143468140D01*
X197801000Y-145131860D01*
X197786707Y-145276978D01*
X197746165Y-145410627D01*
X197680338Y-145533782D01*
X197591739Y-145641739D01*
X197483782Y-145730338D01*
X197360627Y-145796165D01*
X197226978Y-145836707D01*
X197081860Y-145851000D01*
X194918140Y-145851000D01*
X194773022Y-145836707D01*
X194639373Y-145796165D01*
X194516218Y-145730338D01*
X194408261Y-145641739D01*
X194319662Y-145533782D01*
X194253835Y-145410627D01*
X194213293Y-145276978D01*
X194199000Y-145131860D01*
X194199000Y-143468140D01*
X194213293Y-143323022D01*
X194253835Y-143189373D01*
X194319662Y-143066218D01*
X194408261Y-142958261D01*
X194516218Y-142869662D01*
X194639373Y-142803835D01*
X194773022Y-142763293D01*
X194918140Y-142749000D01*
X197081860Y-142749000D01*
X197226978Y-142763293D01*
X197226978Y-142763293D01*
G37*
G36*
X237335734Y-142493232D02*
X237545202Y-142579996D01*
X237733723Y-142705962D01*
X237894038Y-142866277D01*
X238020004Y-143054798D01*
X238106768Y-143264266D01*
X238151000Y-143486635D01*
X238151000Y-143713365D01*
X238106768Y-143935734D01*
X238020004Y-144145202D01*
X237894038Y-144333723D01*
X237733723Y-144494038D01*
X237545202Y-144620004D01*
X237335734Y-144706768D01*
X237113365Y-144751000D01*
X236886635Y-144751000D01*
X236664266Y-144706768D01*
X236454798Y-144620004D01*
X236266277Y-144494038D01*
X236105962Y-144333723D01*
X235979996Y-144145202D01*
X235893232Y-143935734D01*
X235849000Y-143713365D01*
X235849000Y-143486635D01*
X235893232Y-143264266D01*
X235979996Y-143054798D01*
X236105962Y-142866277D01*
X236266277Y-142705962D01*
X236454798Y-142579996D01*
X236664266Y-142493232D01*
X236886635Y-142449000D01*
X237113365Y-142449000D01*
X237335734Y-142493232D01*
X237335734Y-142493232D01*
G37*
G36*
X201826366Y-139515695D02*
X201983458Y-139563348D01*
X202128230Y-139640731D01*
X202255128Y-139744872D01*
X202359269Y-139871770D01*
X202436652Y-140016542D01*
X202484305Y-140173634D01*
X202501000Y-140343140D01*
X202501000Y-142256860D01*
X202484305Y-142426366D01*
X202436652Y-142583458D01*
X202359269Y-142728230D01*
X202255128Y-142855128D01*
X202128230Y-142959269D01*
X201983458Y-143036652D01*
X201826366Y-143084305D01*
X201656860Y-143101000D01*
X199743140Y-143101000D01*
X199573634Y-143084305D01*
X199416542Y-143036652D01*
X199271770Y-142959269D01*
X199144872Y-142855128D01*
X199040731Y-142728230D01*
X198963348Y-142583458D01*
X198915695Y-142426366D01*
X198899000Y-142256860D01*
X198899000Y-140343140D01*
X198915695Y-140173634D01*
X198963348Y-140016542D01*
X199040731Y-139871770D01*
X199144872Y-139744872D01*
X199271770Y-139640731D01*
X199416542Y-139563348D01*
X199573634Y-139515695D01*
X199743140Y-139499000D01*
X201656860Y-139499000D01*
X201826366Y-139515695D01*
X201826366Y-139515695D01*
G37*
G36*
X234269083Y-138423975D02*
X234269085Y-138423976D01*
X234269086Y-138423976D01*
X234624145Y-138571046D01*
X234624146Y-138571047D01*
X234943693Y-138784561D01*
X235215439Y-139056307D01*
X235215441Y-139056310D01*
X235428954Y-139375855D01*
X235538669Y-139640731D01*
X235576025Y-139730917D01*
X235582357Y-139762750D01*
X235651000Y-140107843D01*
X235651000Y-140492157D01*
X235576024Y-140869086D01*
X235428954Y-141224145D01*
X235428953Y-141224146D01*
X235215439Y-141543693D01*
X234943693Y-141815439D01*
X234943690Y-141815441D01*
X234624145Y-142028954D01*
X234269086Y-142176024D01*
X234269085Y-142176024D01*
X234269083Y-142176025D01*
X233892158Y-142251000D01*
X233507842Y-142251000D01*
X233130917Y-142176025D01*
X233130915Y-142176024D01*
X233130914Y-142176024D01*
X232775855Y-142028954D01*
X232456310Y-141815441D01*
X232456307Y-141815439D01*
X232184561Y-141543693D01*
X231971047Y-141224146D01*
X231971046Y-141224145D01*
X231823976Y-140869086D01*
X231749000Y-140492157D01*
X231749000Y-140107843D01*
X231817643Y-139762750D01*
X231823975Y-139730917D01*
X231861331Y-139640731D01*
X231971046Y-139375855D01*
X232184559Y-139056310D01*
X232184561Y-139056307D01*
X232456307Y-138784561D01*
X232775854Y-138571047D01*
X232775855Y-138571046D01*
X233130914Y-138423976D01*
X233130915Y-138423976D01*
X233130917Y-138423975D01*
X233507842Y-138349000D01*
X233892158Y-138349000D01*
X234269083Y-138423975D01*
X234269083Y-138423975D01*
G37*
G36*
X240869083Y-138423975D02*
X240869085Y-138423976D01*
X240869086Y-138423976D01*
X241224145Y-138571046D01*
X241224146Y-138571047D01*
X241543693Y-138784561D01*
X241815439Y-139056307D01*
X241815441Y-139056310D01*
X242028954Y-139375855D01*
X242138669Y-139640731D01*
X242176025Y-139730917D01*
X242182357Y-139762750D01*
X242251000Y-140107843D01*
X242251000Y-140492157D01*
X242176024Y-140869086D01*
X242028954Y-141224145D01*
X242028953Y-141224146D01*
X241815439Y-141543693D01*
X241543693Y-141815439D01*
X241543690Y-141815441D01*
X241224145Y-142028954D01*
X240869086Y-142176024D01*
X240869085Y-142176024D01*
X240869083Y-142176025D01*
X240492158Y-142251000D01*
X240107842Y-142251000D01*
X239730917Y-142176025D01*
X239730915Y-142176024D01*
X239730914Y-142176024D01*
X239375855Y-142028954D01*
X239056310Y-141815441D01*
X239056307Y-141815439D01*
X238784561Y-141543693D01*
X238571047Y-141224146D01*
X238571046Y-141224145D01*
X238423976Y-140869086D01*
X238349000Y-140492157D01*
X238349000Y-140107843D01*
X238417643Y-139762750D01*
X238423975Y-139730917D01*
X238461331Y-139640731D01*
X238571046Y-139375855D01*
X238784559Y-139056310D01*
X238784561Y-139056307D01*
X239056307Y-138784561D01*
X239375854Y-138571047D01*
X239375855Y-138571046D01*
X239730914Y-138423976D01*
X239730915Y-138423976D01*
X239730917Y-138423975D01*
X240107842Y-138349000D01*
X240492158Y-138349000D01*
X240869083Y-138423975D01*
X240869083Y-138423975D01*
G37*
G36*
X250576415Y-139380940D02*
X250610393Y-139391248D01*
X250641711Y-139407988D01*
X250669163Y-139430516D01*
X250691691Y-139457968D01*
X250708431Y-139489286D01*
X250718739Y-139523264D01*
X250722824Y-139564745D01*
X250722824Y-140240965D01*
X250718739Y-140282446D01*
X250708431Y-140316424D01*
X250691691Y-140347742D01*
X250669163Y-140375194D01*
X250641711Y-140397722D01*
X250610393Y-140414462D01*
X250576415Y-140424770D01*
X250534934Y-140428855D01*
X249933714Y-140428855D01*
X249892233Y-140424770D01*
X249858255Y-140414462D01*
X249826937Y-140397722D01*
X249799485Y-140375194D01*
X249776957Y-140347742D01*
X249760217Y-140316424D01*
X249749909Y-140282446D01*
X249745824Y-140240965D01*
X249745824Y-139564745D01*
X249749909Y-139523264D01*
X249760217Y-139489286D01*
X249776957Y-139457968D01*
X249799485Y-139430516D01*
X249826937Y-139407988D01*
X249858255Y-139391248D01*
X249892233Y-139380940D01*
X249933714Y-139376855D01*
X250534934Y-139376855D01*
X250576415Y-139380940D01*
X250576415Y-139380940D01*
G37*
G36*
X252151415Y-139380940D02*
X252185393Y-139391248D01*
X252216711Y-139407988D01*
X252244163Y-139430516D01*
X252266691Y-139457968D01*
X252283431Y-139489286D01*
X252293739Y-139523264D01*
X252297824Y-139564745D01*
X252297824Y-140240965D01*
X252293739Y-140282446D01*
X252283431Y-140316424D01*
X252266691Y-140347742D01*
X252244163Y-140375194D01*
X252216711Y-140397722D01*
X252185393Y-140414462D01*
X252151415Y-140424770D01*
X252109934Y-140428855D01*
X251508714Y-140428855D01*
X251467233Y-140424770D01*
X251433255Y-140414462D01*
X251401937Y-140397722D01*
X251374485Y-140375194D01*
X251351957Y-140347742D01*
X251335217Y-140316424D01*
X251324909Y-140282446D01*
X251320824Y-140240965D01*
X251320824Y-139564745D01*
X251324909Y-139523264D01*
X251335217Y-139489286D01*
X251351957Y-139457968D01*
X251374485Y-139430516D01*
X251401937Y-139407988D01*
X251433255Y-139391248D01*
X251467233Y-139380940D01*
X251508714Y-139376855D01*
X252109934Y-139376855D01*
X252151415Y-139380940D01*
X252151415Y-139380940D01*
G37*
G36*
X197801000Y-140101000D02*
X194199000Y-140101000D01*
X194199000Y-136499000D01*
X197801000Y-136499000D01*
X197801000Y-140101000D01*
X197801000Y-140101000D01*
G37*
G36*
X211418604Y-135128347D02*
X211455145Y-135139432D01*
X211488820Y-135157431D01*
X211518341Y-135181659D01*
X211542569Y-135211180D01*
X211560568Y-135244855D01*
X211571653Y-135281396D01*
X211576000Y-135325538D01*
X211576000Y-137674462D01*
X211571653Y-137718604D01*
X211560568Y-137755145D01*
X211542569Y-137788820D01*
X211518341Y-137818341D01*
X211488820Y-137842569D01*
X211455145Y-137860568D01*
X211418604Y-137871653D01*
X211374462Y-137876000D01*
X210425538Y-137876000D01*
X210381396Y-137871653D01*
X210344855Y-137860568D01*
X210311180Y-137842569D01*
X210281659Y-137818341D01*
X210257431Y-137788820D01*
X210239432Y-137755145D01*
X210228347Y-137718604D01*
X210224000Y-137674462D01*
X210224000Y-135325538D01*
X210228347Y-135281396D01*
X210239432Y-135244855D01*
X210257431Y-135211180D01*
X210281659Y-135181659D01*
X210311180Y-135157431D01*
X210344855Y-135139432D01*
X210381396Y-135128347D01*
X210425538Y-135124000D01*
X211374462Y-135124000D01*
X211418604Y-135128347D01*
X211418604Y-135128347D01*
G37*
G36*
X217918604Y-135128347D02*
X217955145Y-135139432D01*
X217988820Y-135157431D01*
X218018341Y-135181659D01*
X218042569Y-135211180D01*
X218060568Y-135244855D01*
X218071653Y-135281396D01*
X218076000Y-135325538D01*
X218076000Y-137674462D01*
X218071653Y-137718604D01*
X218060568Y-137755145D01*
X218042569Y-137788820D01*
X218018341Y-137818341D01*
X217988820Y-137842569D01*
X217955145Y-137860568D01*
X217918604Y-137871653D01*
X217874462Y-137876000D01*
X216925538Y-137876000D01*
X216881396Y-137871653D01*
X216844855Y-137860568D01*
X216811180Y-137842569D01*
X216781659Y-137818341D01*
X216757431Y-137788820D01*
X216739432Y-137755145D01*
X216728347Y-137718604D01*
X216724000Y-137674462D01*
X216724000Y-135325538D01*
X216728347Y-135281396D01*
X216739432Y-135244855D01*
X216757431Y-135211180D01*
X216781659Y-135181659D01*
X216811180Y-135157431D01*
X216844855Y-135139432D01*
X216881396Y-135128347D01*
X216925538Y-135124000D01*
X217874462Y-135124000D01*
X217918604Y-135128347D01*
X217918604Y-135128347D01*
G37*
G36*
X215118604Y-135128347D02*
X215155145Y-135139432D01*
X215188820Y-135157431D01*
X215218341Y-135181659D01*
X215242569Y-135211180D01*
X215260568Y-135244855D01*
X215271653Y-135281396D01*
X215276000Y-135325538D01*
X215276000Y-137674462D01*
X215271653Y-137718604D01*
X215260568Y-137755145D01*
X215242569Y-137788820D01*
X215218341Y-137818341D01*
X215188820Y-137842569D01*
X215155145Y-137860568D01*
X215118604Y-137871653D01*
X215074462Y-137876000D01*
X214125538Y-137876000D01*
X214081396Y-137871653D01*
X214044855Y-137860568D01*
X214011180Y-137842569D01*
X213981659Y-137818341D01*
X213957431Y-137788820D01*
X213939432Y-137755145D01*
X213928347Y-137718604D01*
X213924000Y-137674462D01*
X213924000Y-135325538D01*
X213928347Y-135281396D01*
X213939432Y-135244855D01*
X213957431Y-135211180D01*
X213981659Y-135181659D01*
X214011180Y-135157431D01*
X214044855Y-135139432D01*
X214081396Y-135128347D01*
X214125538Y-135124000D01*
X215074462Y-135124000D01*
X215118604Y-135128347D01*
X215118604Y-135128347D01*
G37*
G36*
X208618604Y-135128347D02*
X208655145Y-135139432D01*
X208688820Y-135157431D01*
X208718341Y-135181659D01*
X208742569Y-135211180D01*
X208760568Y-135244855D01*
X208771653Y-135281396D01*
X208776000Y-135325538D01*
X208776000Y-137674462D01*
X208771653Y-137718604D01*
X208760568Y-137755145D01*
X208742569Y-137788820D01*
X208718341Y-137818341D01*
X208688820Y-137842569D01*
X208655145Y-137860568D01*
X208618604Y-137871653D01*
X208574462Y-137876000D01*
X207625538Y-137876000D01*
X207581396Y-137871653D01*
X207544855Y-137860568D01*
X207511180Y-137842569D01*
X207481659Y-137818341D01*
X207457431Y-137788820D01*
X207439432Y-137755145D01*
X207428347Y-137718604D01*
X207424000Y-137674462D01*
X207424000Y-135325538D01*
X207428347Y-135281396D01*
X207439432Y-135244855D01*
X207457431Y-135211180D01*
X207481659Y-135181659D01*
X207511180Y-135157431D01*
X207544855Y-135139432D01*
X207581396Y-135128347D01*
X207625538Y-135124000D01*
X208574462Y-135124000D01*
X208618604Y-135128347D01*
X208618604Y-135128347D01*
G37*
G36*
X213129591Y-136803085D02*
X213163569Y-136813393D01*
X213194887Y-136830133D01*
X213222339Y-136852661D01*
X213244867Y-136880113D01*
X213261607Y-136911431D01*
X213271915Y-136945409D01*
X213276000Y-136986890D01*
X213276000Y-137588110D01*
X213271915Y-137629591D01*
X213261607Y-137663569D01*
X213244867Y-137694887D01*
X213222339Y-137722339D01*
X213194887Y-137744867D01*
X213163569Y-137761607D01*
X213129591Y-137771915D01*
X213088110Y-137776000D01*
X212411890Y-137776000D01*
X212370409Y-137771915D01*
X212336431Y-137761607D01*
X212305113Y-137744867D01*
X212277661Y-137722339D01*
X212255133Y-137694887D01*
X212238393Y-137663569D01*
X212228085Y-137629591D01*
X212224000Y-137588110D01*
X212224000Y-136986890D01*
X212228085Y-136945409D01*
X212238393Y-136911431D01*
X212255133Y-136880113D01*
X212277661Y-136852661D01*
X212305113Y-136830133D01*
X212336431Y-136813393D01*
X212370409Y-136803085D01*
X212411890Y-136799000D01*
X213088110Y-136799000D01*
X213129591Y-136803085D01*
X213129591Y-136803085D01*
G37*
G36*
X206151000Y-137701000D02*
X204849000Y-137701000D01*
X204849000Y-136699000D01*
X206151000Y-136699000D01*
X206151000Y-137701000D01*
X206151000Y-137701000D01*
G37*
G36*
X251947824Y-137553855D02*
X250095824Y-137553855D01*
X250095824Y-136851855D01*
X251947824Y-136851855D01*
X251947824Y-137553855D01*
X251947824Y-137553855D01*
G37*
G36*
X251922824Y-136553855D02*
X250120824Y-136553855D01*
X250120824Y-135451855D01*
X251922824Y-135451855D01*
X251922824Y-136553855D01*
X251922824Y-136553855D01*
G37*
G36*
X213129591Y-135228085D02*
X213163569Y-135238393D01*
X213194887Y-135255133D01*
X213222339Y-135277661D01*
X213244867Y-135305113D01*
X213261607Y-135336431D01*
X213271915Y-135370409D01*
X213276000Y-135411890D01*
X213276000Y-136013110D01*
X213271915Y-136054591D01*
X213261607Y-136088569D01*
X213244867Y-136119887D01*
X213222339Y-136147339D01*
X213194887Y-136169867D01*
X213163569Y-136186607D01*
X213129591Y-136196915D01*
X213088110Y-136201000D01*
X212411890Y-136201000D01*
X212370409Y-136196915D01*
X212336431Y-136186607D01*
X212305113Y-136169867D01*
X212277661Y-136147339D01*
X212255133Y-136119887D01*
X212238393Y-136088569D01*
X212228085Y-136054591D01*
X212224000Y-136013110D01*
X212224000Y-135411890D01*
X212228085Y-135370409D01*
X212238393Y-135336431D01*
X212255133Y-135305113D01*
X212277661Y-135277661D01*
X212305113Y-135255133D01*
X212336431Y-135238393D01*
X212370409Y-135228085D01*
X212411890Y-135224000D01*
X213088110Y-135224000D01*
X213129591Y-135228085D01*
X213129591Y-135228085D01*
G37*
G36*
X231954591Y-134903085D02*
X231988569Y-134913393D01*
X232019887Y-134930133D01*
X232047339Y-134952661D01*
X232069867Y-134980113D01*
X232086607Y-135011431D01*
X232096915Y-135045409D01*
X232101000Y-135086890D01*
X232101000Y-135763110D01*
X232096915Y-135804591D01*
X232086607Y-135838569D01*
X232069867Y-135869887D01*
X232047339Y-135897339D01*
X232019887Y-135919867D01*
X231988569Y-135936607D01*
X231954591Y-135946915D01*
X231913110Y-135951000D01*
X231311890Y-135951000D01*
X231270409Y-135946915D01*
X231236431Y-135936607D01*
X231205113Y-135919867D01*
X231177661Y-135897339D01*
X231155133Y-135869887D01*
X231138393Y-135838569D01*
X231128085Y-135804591D01*
X231124000Y-135763110D01*
X231124000Y-135086890D01*
X231128085Y-135045409D01*
X231138393Y-135011431D01*
X231155133Y-134980113D01*
X231177661Y-134952661D01*
X231205113Y-134930133D01*
X231236431Y-134913393D01*
X231270409Y-134903085D01*
X231311890Y-134899000D01*
X231913110Y-134899000D01*
X231954591Y-134903085D01*
X231954591Y-134903085D01*
G37*
G36*
X230379591Y-134903085D02*
X230413569Y-134913393D01*
X230444887Y-134930133D01*
X230472339Y-134952661D01*
X230494867Y-134980113D01*
X230511607Y-135011431D01*
X230521915Y-135045409D01*
X230526000Y-135086890D01*
X230526000Y-135763110D01*
X230521915Y-135804591D01*
X230511607Y-135838569D01*
X230494867Y-135869887D01*
X230472339Y-135897339D01*
X230444887Y-135919867D01*
X230413569Y-135936607D01*
X230379591Y-135946915D01*
X230338110Y-135951000D01*
X229736890Y-135951000D01*
X229695409Y-135946915D01*
X229661431Y-135936607D01*
X229630113Y-135919867D01*
X229602661Y-135897339D01*
X229580133Y-135869887D01*
X229563393Y-135838569D01*
X229553085Y-135804591D01*
X229549000Y-135763110D01*
X229549000Y-135086890D01*
X229553085Y-135045409D01*
X229563393Y-135011431D01*
X229580133Y-134980113D01*
X229602661Y-134952661D01*
X229630113Y-134930133D01*
X229661431Y-134913393D01*
X229695409Y-134903085D01*
X229736890Y-134899000D01*
X230338110Y-134899000D01*
X230379591Y-134903085D01*
X230379591Y-134903085D01*
G37*
G36*
X243776000Y-135931000D02*
X241124000Y-135931000D01*
X241124000Y-134769000D01*
X243776000Y-134769000D01*
X243776000Y-135931000D01*
X243776000Y-135931000D01*
G37*
G36*
X234576000Y-135756000D02*
X232924000Y-135756000D01*
X232924000Y-135054000D01*
X234576000Y-135054000D01*
X234576000Y-135756000D01*
X234576000Y-135756000D01*
G37*
G36*
X239976000Y-135756000D02*
X238324000Y-135756000D01*
X238324000Y-135054000D01*
X239976000Y-135054000D01*
X239976000Y-135756000D01*
X239976000Y-135756000D01*
G37*
G36*
X251947824Y-135153855D02*
X250095824Y-135153855D01*
X250095824Y-134451855D01*
X251947824Y-134451855D01*
X251947824Y-135153855D01*
X251947824Y-135153855D01*
G37*
G36*
X199351000Y-135151000D02*
X194249000Y-135151000D01*
X194249000Y-130849000D01*
X199351000Y-130849000D01*
X199351000Y-135151000D01*
X199351000Y-135151000D01*
G37*
G36*
X201676000Y-134776000D02*
X200124000Y-134776000D01*
X200124000Y-133224000D01*
X201676000Y-133224000D01*
X201676000Y-134776000D01*
X201676000Y-134776000D01*
G37*
G36*
X213276000Y-134526000D02*
X212224000Y-134526000D01*
X212224000Y-133549000D01*
X213276000Y-133549000D01*
X213276000Y-134526000D01*
X213276000Y-134526000D01*
G37*
G36*
X208554591Y-133478085D02*
X208588569Y-133488393D01*
X208619887Y-133505133D01*
X208647339Y-133527661D01*
X208669867Y-133555113D01*
X208686607Y-133586431D01*
X208696915Y-133620409D01*
X208701000Y-133661890D01*
X208701000Y-134338110D01*
X208696915Y-134379591D01*
X208686607Y-134413569D01*
X208669867Y-134444887D01*
X208647339Y-134472339D01*
X208619887Y-134494867D01*
X208588569Y-134511607D01*
X208554591Y-134521915D01*
X208513110Y-134526000D01*
X207911890Y-134526000D01*
X207870409Y-134521915D01*
X207836431Y-134511607D01*
X207805113Y-134494867D01*
X207777661Y-134472339D01*
X207755133Y-134444887D01*
X207738393Y-134413569D01*
X207728085Y-134379591D01*
X207724000Y-134338110D01*
X207724000Y-133661890D01*
X207728085Y-133620409D01*
X207738393Y-133586431D01*
X207755133Y-133555113D01*
X207777661Y-133527661D01*
X207805113Y-133505133D01*
X207836431Y-133488393D01*
X207870409Y-133478085D01*
X207911890Y-133474000D01*
X208513110Y-133474000D01*
X208554591Y-133478085D01*
X208554591Y-133478085D01*
G37*
G36*
X210129591Y-133478085D02*
X210163569Y-133488393D01*
X210194887Y-133505133D01*
X210222339Y-133527661D01*
X210244867Y-133555113D01*
X210261607Y-133586431D01*
X210271915Y-133620409D01*
X210276000Y-133661890D01*
X210276000Y-134338110D01*
X210271915Y-134379591D01*
X210261607Y-134413569D01*
X210244867Y-134444887D01*
X210222339Y-134472339D01*
X210194887Y-134494867D01*
X210163569Y-134511607D01*
X210129591Y-134521915D01*
X210088110Y-134526000D01*
X209486890Y-134526000D01*
X209445409Y-134521915D01*
X209411431Y-134511607D01*
X209380113Y-134494867D01*
X209352661Y-134472339D01*
X209330133Y-134444887D01*
X209313393Y-134413569D01*
X209303085Y-134379591D01*
X209299000Y-134338110D01*
X209299000Y-133661890D01*
X209303085Y-133620409D01*
X209313393Y-133586431D01*
X209330133Y-133555113D01*
X209352661Y-133527661D01*
X209380113Y-133505133D01*
X209411431Y-133488393D01*
X209445409Y-133478085D01*
X209486890Y-133474000D01*
X210088110Y-133474000D01*
X210129591Y-133478085D01*
X210129591Y-133478085D01*
G37*
G36*
X234576000Y-134486000D02*
X232924000Y-134486000D01*
X232924000Y-133784000D01*
X234576000Y-133784000D01*
X234576000Y-134486000D01*
X234576000Y-134486000D01*
G37*
G36*
X239976000Y-134486000D02*
X238324000Y-134486000D01*
X238324000Y-133784000D01*
X239976000Y-133784000D01*
X239976000Y-134486000D01*
X239976000Y-134486000D01*
G37*
G36*
X206151000Y-134301000D02*
X204849000Y-134301000D01*
X204849000Y-133299000D01*
X206151000Y-133299000D01*
X206151000Y-134301000D01*
X206151000Y-134301000D01*
G37*
G36*
X227679591Y-132803085D02*
X227713569Y-132813393D01*
X227744887Y-132830133D01*
X227772339Y-132852661D01*
X227794867Y-132880113D01*
X227811607Y-132911431D01*
X227821915Y-132945409D01*
X227826000Y-132986890D01*
X227826000Y-133588110D01*
X227821915Y-133629591D01*
X227811607Y-133663569D01*
X227794867Y-133694887D01*
X227772339Y-133722339D01*
X227744887Y-133744867D01*
X227713569Y-133761607D01*
X227679591Y-133771915D01*
X227638110Y-133776000D01*
X226961890Y-133776000D01*
X226920409Y-133771915D01*
X226886431Y-133761607D01*
X226855113Y-133744867D01*
X226827661Y-133722339D01*
X226805133Y-133694887D01*
X226788393Y-133663569D01*
X226778085Y-133629591D01*
X226774000Y-133588110D01*
X226774000Y-132986890D01*
X226778085Y-132945409D01*
X226788393Y-132911431D01*
X226805133Y-132880113D01*
X226827661Y-132852661D01*
X226855113Y-132830133D01*
X226886431Y-132813393D01*
X226920409Y-132803085D01*
X226961890Y-132799000D01*
X227638110Y-132799000D01*
X227679591Y-132803085D01*
X227679591Y-132803085D01*
G37*
G36*
X243776000Y-133731000D02*
X241124000Y-133731000D01*
X241124000Y-132569000D01*
X243776000Y-132569000D01*
X243776000Y-133731000D01*
X243776000Y-133731000D01*
G37*
G36*
X239976000Y-133216000D02*
X238324000Y-133216000D01*
X238324000Y-132514000D01*
X239976000Y-132514000D01*
X239976000Y-133216000D01*
X239976000Y-133216000D01*
G37*
G36*
X234576000Y-133216000D02*
X232924000Y-133216000D01*
X232924000Y-132514000D01*
X234576000Y-132514000D01*
X234576000Y-133216000D01*
X234576000Y-133216000D01*
G37*
G36*
X213276000Y-132951000D02*
X212224000Y-132951000D01*
X212224000Y-131974000D01*
X213276000Y-131974000D01*
X213276000Y-132951000D01*
X213276000Y-132951000D01*
G37*
G36*
X201676000Y-132776000D02*
X200124000Y-132776000D01*
X200124000Y-131224000D01*
X201676000Y-131224000D01*
X201676000Y-132776000D01*
X201676000Y-132776000D01*
G37*
G36*
X210681000Y-132326000D02*
X209519000Y-132326000D01*
X209519000Y-129674000D01*
X210681000Y-129674000D01*
X210681000Y-132326000D01*
X210681000Y-132326000D01*
G37*
G36*
X208481000Y-132326000D02*
X207319000Y-132326000D01*
X207319000Y-129674000D01*
X208481000Y-129674000D01*
X208481000Y-132326000D01*
X208481000Y-132326000D01*
G37*
G36*
X227679591Y-131228085D02*
X227713569Y-131238393D01*
X227744887Y-131255133D01*
X227772339Y-131277661D01*
X227794867Y-131305113D01*
X227811607Y-131336431D01*
X227821915Y-131370409D01*
X227826000Y-131411890D01*
X227826000Y-132013110D01*
X227821915Y-132054591D01*
X227811607Y-132088569D01*
X227794867Y-132119887D01*
X227772339Y-132147339D01*
X227744887Y-132169867D01*
X227713569Y-132186607D01*
X227679591Y-132196915D01*
X227638110Y-132201000D01*
X226961890Y-132201000D01*
X226920409Y-132196915D01*
X226886431Y-132186607D01*
X226855113Y-132169867D01*
X226827661Y-132147339D01*
X226805133Y-132119887D01*
X226788393Y-132088569D01*
X226778085Y-132054591D01*
X226774000Y-132013110D01*
X226774000Y-131411890D01*
X226778085Y-131370409D01*
X226788393Y-131336431D01*
X226805133Y-131305113D01*
X226827661Y-131277661D01*
X226855113Y-131255133D01*
X226886431Y-131238393D01*
X226920409Y-131228085D01*
X226961890Y-131224000D01*
X227638110Y-131224000D01*
X227679591Y-131228085D01*
X227679591Y-131228085D01*
G37*
G36*
X229681000Y-132076000D02*
X228519000Y-132076000D01*
X228519000Y-129424000D01*
X229681000Y-129424000D01*
X229681000Y-132076000D01*
X229681000Y-132076000D01*
G37*
G36*
X231881000Y-132076000D02*
X230719000Y-132076000D01*
X230719000Y-129424000D01*
X231881000Y-129424000D01*
X231881000Y-132076000D01*
X231881000Y-132076000D01*
G37*
G36*
X239976000Y-131946000D02*
X238324000Y-131946000D01*
X238324000Y-131244000D01*
X239976000Y-131244000D01*
X239976000Y-131946000D01*
X239976000Y-131946000D01*
G37*
G36*
X234576000Y-131946000D02*
X232924000Y-131946000D01*
X232924000Y-131244000D01*
X234576000Y-131244000D01*
X234576000Y-131946000D01*
X234576000Y-131946000D01*
G37*
G36*
X244379591Y-130728085D02*
X244413569Y-130738393D01*
X244444887Y-130755133D01*
X244472339Y-130777661D01*
X244494867Y-130805113D01*
X244511607Y-130836431D01*
X244521915Y-130870409D01*
X244526000Y-130911890D01*
X244526000Y-131588110D01*
X244521915Y-131629591D01*
X244511607Y-131663569D01*
X244494867Y-131694887D01*
X244472339Y-131722339D01*
X244444887Y-131744867D01*
X244413569Y-131761607D01*
X244379591Y-131771915D01*
X244338110Y-131776000D01*
X243736890Y-131776000D01*
X243695409Y-131771915D01*
X243661431Y-131761607D01*
X243630113Y-131744867D01*
X243602661Y-131722339D01*
X243580133Y-131694887D01*
X243563393Y-131663569D01*
X243553085Y-131629591D01*
X243549000Y-131588110D01*
X243549000Y-130911890D01*
X243553085Y-130870409D01*
X243563393Y-130836431D01*
X243580133Y-130805113D01*
X243602661Y-130777661D01*
X243630113Y-130755133D01*
X243661431Y-130738393D01*
X243695409Y-130728085D01*
X243736890Y-130724000D01*
X244338110Y-130724000D01*
X244379591Y-130728085D01*
X244379591Y-130728085D01*
G37*
G36*
X242804591Y-130728085D02*
X242838569Y-130738393D01*
X242869887Y-130755133D01*
X242897339Y-130777661D01*
X242919867Y-130805113D01*
X242936607Y-130836431D01*
X242946915Y-130870409D01*
X242951000Y-130911890D01*
X242951000Y-131588110D01*
X242946915Y-131629591D01*
X242936607Y-131663569D01*
X242919867Y-131694887D01*
X242897339Y-131722339D01*
X242869887Y-131744867D01*
X242838569Y-131761607D01*
X242804591Y-131771915D01*
X242763110Y-131776000D01*
X242161890Y-131776000D01*
X242120409Y-131771915D01*
X242086431Y-131761607D01*
X242055113Y-131744867D01*
X242027661Y-131722339D01*
X242005133Y-131694887D01*
X241988393Y-131663569D01*
X241978085Y-131629591D01*
X241974000Y-131588110D01*
X241974000Y-130911890D01*
X241978085Y-130870409D01*
X241988393Y-130836431D01*
X242005133Y-130805113D01*
X242027661Y-130777661D01*
X242055113Y-130755133D01*
X242086431Y-130738393D01*
X242120409Y-130728085D01*
X242161890Y-130724000D01*
X242763110Y-130724000D01*
X242804591Y-130728085D01*
X242804591Y-130728085D01*
G37*
G36*
X206026000Y-131776000D02*
X204974000Y-131776000D01*
X204974000Y-130799000D01*
X206026000Y-130799000D01*
X206026000Y-131776000D01*
X206026000Y-131776000D01*
G37*
G36*
X204379591Y-130803085D02*
X204413569Y-130813393D01*
X204444887Y-130830133D01*
X204472339Y-130852661D01*
X204494867Y-130880113D01*
X204511607Y-130911431D01*
X204521915Y-130945409D01*
X204526000Y-130986890D01*
X204526000Y-131588110D01*
X204521915Y-131629591D01*
X204511607Y-131663569D01*
X204494867Y-131694887D01*
X204472339Y-131722339D01*
X204444887Y-131744867D01*
X204413569Y-131761607D01*
X204379591Y-131771915D01*
X204338110Y-131776000D01*
X203661890Y-131776000D01*
X203620409Y-131771915D01*
X203586431Y-131761607D01*
X203555113Y-131744867D01*
X203527661Y-131722339D01*
X203505133Y-131694887D01*
X203488393Y-131663569D01*
X203478085Y-131629591D01*
X203474000Y-131588110D01*
X203474000Y-130986890D01*
X203478085Y-130945409D01*
X203488393Y-130911431D01*
X203505133Y-130880113D01*
X203527661Y-130852661D01*
X203555113Y-130830133D01*
X203586431Y-130813393D01*
X203620409Y-130803085D01*
X203661890Y-130799000D01*
X204338110Y-130799000D01*
X204379591Y-130803085D01*
X204379591Y-130803085D01*
G37*
G36*
X213276000Y-131276000D02*
X212224000Y-131276000D01*
X212224000Y-130299000D01*
X213276000Y-130299000D01*
X213276000Y-131276000D01*
X213276000Y-131276000D01*
G37*
G36*
X206026000Y-130201000D02*
X204974000Y-130201000D01*
X204974000Y-129224000D01*
X206026000Y-129224000D01*
X206026000Y-130201000D01*
X206026000Y-130201000D01*
G37*
G36*
X204379591Y-129228085D02*
X204413569Y-129238393D01*
X204444887Y-129255133D01*
X204472339Y-129277661D01*
X204494867Y-129305113D01*
X204511607Y-129336431D01*
X204521915Y-129370409D01*
X204526000Y-129411890D01*
X204526000Y-130013110D01*
X204521915Y-130054591D01*
X204511607Y-130088569D01*
X204494867Y-130119887D01*
X204472339Y-130147339D01*
X204444887Y-130169867D01*
X204413569Y-130186607D01*
X204379591Y-130196915D01*
X204338110Y-130201000D01*
X203661890Y-130201000D01*
X203620409Y-130196915D01*
X203586431Y-130186607D01*
X203555113Y-130169867D01*
X203527661Y-130147339D01*
X203505133Y-130119887D01*
X203488393Y-130088569D01*
X203478085Y-130054591D01*
X203474000Y-130013110D01*
X203474000Y-129411890D01*
X203478085Y-129370409D01*
X203488393Y-129336431D01*
X203505133Y-129305113D01*
X203527661Y-129277661D01*
X203555113Y-129255133D01*
X203586431Y-129238393D01*
X203620409Y-129228085D01*
X203661890Y-129224000D01*
X204338110Y-129224000D01*
X204379591Y-129228085D01*
X204379591Y-129228085D01*
G37*
G36*
X202818604Y-128628347D02*
X202855145Y-128639432D01*
X202888820Y-128657431D01*
X202918341Y-128681659D01*
X202942569Y-128711180D01*
X202960568Y-128744855D01*
X202971653Y-128781396D01*
X202976000Y-128825538D01*
X202976000Y-129774462D01*
X202971653Y-129818604D01*
X202960568Y-129855145D01*
X202942569Y-129888820D01*
X202918341Y-129918341D01*
X202888820Y-129942569D01*
X202855145Y-129960568D01*
X202818604Y-129971653D01*
X202774462Y-129976000D01*
X200425538Y-129976000D01*
X200381396Y-129971653D01*
X200344855Y-129960568D01*
X200311180Y-129942569D01*
X200281659Y-129918341D01*
X200257431Y-129888820D01*
X200239432Y-129855145D01*
X200228347Y-129818604D01*
X200224000Y-129774462D01*
X200224000Y-128825538D01*
X200228347Y-128781396D01*
X200239432Y-128744855D01*
X200257431Y-128711180D01*
X200281659Y-128681659D01*
X200311180Y-128657431D01*
X200344855Y-128639432D01*
X200381396Y-128628347D01*
X200425538Y-128624000D01*
X202774462Y-128624000D01*
X202818604Y-128628347D01*
X202818604Y-128628347D01*
G37*
G36*
X242993604Y-127128347D02*
X243030145Y-127139432D01*
X243063820Y-127157431D01*
X243093341Y-127181659D01*
X243117569Y-127211180D01*
X243135568Y-127244855D01*
X243146653Y-127281396D01*
X243151000Y-127325538D01*
X243151000Y-129674462D01*
X243146653Y-129718604D01*
X243135568Y-129755145D01*
X243117569Y-129788820D01*
X243093341Y-129818341D01*
X243063820Y-129842569D01*
X243030145Y-129860568D01*
X242993604Y-129871653D01*
X242949462Y-129876000D01*
X242000538Y-129876000D01*
X241956396Y-129871653D01*
X241919855Y-129860568D01*
X241886180Y-129842569D01*
X241856659Y-129818341D01*
X241832431Y-129788820D01*
X241814432Y-129755145D01*
X241803347Y-129718604D01*
X241799000Y-129674462D01*
X241799000Y-127325538D01*
X241803347Y-127281396D01*
X241814432Y-127244855D01*
X241832431Y-127211180D01*
X241856659Y-127181659D01*
X241886180Y-127157431D01*
X241919855Y-127139432D01*
X241956396Y-127128347D01*
X242000538Y-127124000D01*
X242949462Y-127124000D01*
X242993604Y-127128347D01*
X242993604Y-127128347D01*
G37*
G36*
X245793604Y-127128347D02*
X245830145Y-127139432D01*
X245863820Y-127157431D01*
X245893341Y-127181659D01*
X245917569Y-127211180D01*
X245935568Y-127244855D01*
X245946653Y-127281396D01*
X245951000Y-127325538D01*
X245951000Y-129674462D01*
X245946653Y-129718604D01*
X245935568Y-129755145D01*
X245917569Y-129788820D01*
X245893341Y-129818341D01*
X245863820Y-129842569D01*
X245830145Y-129860568D01*
X245793604Y-129871653D01*
X245749462Y-129876000D01*
X244800538Y-129876000D01*
X244756396Y-129871653D01*
X244719855Y-129860568D01*
X244686180Y-129842569D01*
X244656659Y-129818341D01*
X244632431Y-129788820D01*
X244614432Y-129755145D01*
X244603347Y-129718604D01*
X244599000Y-129674462D01*
X244599000Y-127325538D01*
X244603347Y-127281396D01*
X244614432Y-127244855D01*
X244632431Y-127211180D01*
X244656659Y-127181659D01*
X244686180Y-127157431D01*
X244719855Y-127139432D01*
X244756396Y-127128347D01*
X244800538Y-127124000D01*
X245749462Y-127124000D01*
X245793604Y-127128347D01*
X245793604Y-127128347D01*
G37*
G36*
X213276000Y-129701000D02*
X212224000Y-129701000D01*
X212224000Y-128724000D01*
X213276000Y-128724000D01*
X213276000Y-129701000D01*
X213276000Y-129701000D01*
G37*
G36*
X194001000Y-127901000D02*
X192999000Y-127901000D01*
X192999000Y-126999000D01*
X194001000Y-126999000D01*
X194001000Y-127901000D01*
X194001000Y-127901000D01*
G37*
G36*
X197226000Y-127776000D02*
X196174000Y-127776000D01*
X196174000Y-126799000D01*
X197226000Y-126799000D01*
X197226000Y-127776000D01*
X197226000Y-127776000D01*
G37*
G36*
X195726000Y-127776000D02*
X194674000Y-127776000D01*
X194674000Y-126799000D01*
X195726000Y-126799000D01*
X195726000Y-127776000D01*
X195726000Y-127776000D01*
G37*
G36*
X187977396Y-125585546D02*
X188150466Y-125657234D01*
X188306230Y-125761312D01*
X188438688Y-125893770D01*
X188542766Y-126049534D01*
X188614454Y-126222604D01*
X188651000Y-126406333D01*
X188651000Y-126593667D01*
X188614454Y-126777396D01*
X188542766Y-126950466D01*
X188438688Y-127106230D01*
X188306230Y-127238688D01*
X188150466Y-127342766D01*
X187977396Y-127414454D01*
X187793667Y-127451000D01*
X187606333Y-127451000D01*
X187422604Y-127414454D01*
X187249534Y-127342766D01*
X187093770Y-127238688D01*
X186961312Y-127106230D01*
X186857234Y-126950466D01*
X186785546Y-126777396D01*
X186749000Y-126593667D01*
X186749000Y-126406333D01*
X186785546Y-126222604D01*
X186857234Y-126049534D01*
X186961312Y-125893770D01*
X187093770Y-125761312D01*
X187249534Y-125657234D01*
X187422604Y-125585546D01*
X187606333Y-125549000D01*
X187793667Y-125549000D01*
X187977396Y-125585546D01*
X187977396Y-125585546D01*
G37*
G36*
X202818604Y-125828347D02*
X202855145Y-125839432D01*
X202888820Y-125857431D01*
X202918341Y-125881659D01*
X202942569Y-125911180D01*
X202960568Y-125944855D01*
X202971653Y-125981396D01*
X202976000Y-126025538D01*
X202976000Y-126974462D01*
X202971653Y-127018604D01*
X202960568Y-127055145D01*
X202942569Y-127088820D01*
X202918341Y-127118341D01*
X202888820Y-127142569D01*
X202855145Y-127160568D01*
X202818604Y-127171653D01*
X202774462Y-127176000D01*
X200425538Y-127176000D01*
X200381396Y-127171653D01*
X200344855Y-127160568D01*
X200311180Y-127142569D01*
X200281659Y-127118341D01*
X200257431Y-127088820D01*
X200239432Y-127055145D01*
X200228347Y-127018604D01*
X200224000Y-126974462D01*
X200224000Y-126025538D01*
X200228347Y-125981396D01*
X200239432Y-125944855D01*
X200257431Y-125911180D01*
X200281659Y-125881659D01*
X200311180Y-125857431D01*
X200344855Y-125839432D01*
X200381396Y-125828347D01*
X200425538Y-125824000D01*
X202774462Y-125824000D01*
X202818604Y-125828347D01*
X202818604Y-125828347D01*
G37*
G36*
X192001000Y-126951000D02*
X190999000Y-126951000D01*
X190999000Y-126049000D01*
X192001000Y-126049000D01*
X192001000Y-126951000D01*
X192001000Y-126951000D01*
G37*
G36*
X195726000Y-126201000D02*
X194674000Y-126201000D01*
X194674000Y-125224000D01*
X195726000Y-125224000D01*
X195726000Y-126201000D01*
X195726000Y-126201000D01*
G37*
G36*
X197226000Y-126201000D02*
X196174000Y-126201000D01*
X196174000Y-125224000D01*
X197226000Y-125224000D01*
X197226000Y-126201000D01*
X197226000Y-126201000D01*
G37*
G36*
X194001000Y-126001000D02*
X192999000Y-126001000D01*
X192999000Y-125099000D01*
X194001000Y-125099000D01*
X194001000Y-126001000D01*
X194001000Y-126001000D01*
G37*
G36*
X206375256Y-122391298D02*
X206481579Y-122412447D01*
X206782042Y-122536903D01*
X207048852Y-122715180D01*
X207052454Y-122717587D01*
X207282413Y-122947546D01*
X207282415Y-122947549D01*
X207463097Y-123217958D01*
X207587553Y-123518421D01*
X207651000Y-123837391D01*
X207651000Y-124162609D01*
X207587553Y-124481579D01*
X207463097Y-124782042D01*
X207284820Y-125048852D01*
X207282413Y-125052454D01*
X207052454Y-125282413D01*
X207052451Y-125282415D01*
X206782042Y-125463097D01*
X206481579Y-125587553D01*
X206375256Y-125608702D01*
X206162611Y-125651000D01*
X205837389Y-125651000D01*
X205624744Y-125608702D01*
X205518421Y-125587553D01*
X205217958Y-125463097D01*
X204947549Y-125282415D01*
X204947546Y-125282413D01*
X204717587Y-125052454D01*
X204715180Y-125048852D01*
X204536903Y-124782042D01*
X204412447Y-124481579D01*
X204349000Y-124162609D01*
X204349000Y-123837391D01*
X204412447Y-123518421D01*
X204536903Y-123217958D01*
X204717585Y-122947549D01*
X204717587Y-122947546D01*
X204947546Y-122717587D01*
X204951148Y-122715180D01*
X205217958Y-122536903D01*
X205518421Y-122412447D01*
X205624744Y-122391298D01*
X205837389Y-122349000D01*
X206162611Y-122349000D01*
X206375256Y-122391298D01*
X206375256Y-122391298D01*
G37*
G36*
X188651000Y-124951000D02*
X186749000Y-124951000D01*
X186749000Y-123049000D01*
X188651000Y-123049000D01*
X188651000Y-124951000D01*
X188651000Y-124951000D01*
G37*
G36*
X253226000Y-114426000D02*
X252249000Y-114426000D01*
X252249000Y-113374000D01*
X253226000Y-113374000D01*
X253226000Y-114426000D01*
X253226000Y-114426000D01*
G37*
G36*
X251651000Y-114426000D02*
X250674000Y-114426000D01*
X250674000Y-113374000D01*
X251651000Y-113374000D01*
X251651000Y-114426000D01*
X251651000Y-114426000D01*
G37*
G36*
X250226000Y-114426000D02*
X249249000Y-114426000D01*
X249249000Y-113374000D01*
X250226000Y-113374000D01*
X250226000Y-114426000D01*
X250226000Y-114426000D01*
G37*
G36*
X248651000Y-114426000D02*
X247674000Y-114426000D01*
X247674000Y-113374000D01*
X248651000Y-113374000D01*
X248651000Y-114426000D01*
X248651000Y-114426000D01*
G37*
G36*
X218401000Y-112151000D02*
X217099000Y-112151000D01*
X217099000Y-111049000D01*
X218401000Y-111049000D01*
X218401000Y-112151000D01*
X218401000Y-112151000D01*
G37*
G36*
X222901000Y-112151000D02*
X221599000Y-112151000D01*
X221599000Y-111049000D01*
X222901000Y-111049000D01*
X222901000Y-112151000D01*
X222901000Y-112151000D01*
G37*
G36*
X229776000Y-112026000D02*
X228799000Y-112026000D01*
X228799000Y-110974000D01*
X229776000Y-110974000D01*
X229776000Y-112026000D01*
X229776000Y-112026000D01*
G37*
G36*
X228201000Y-112026000D02*
X227224000Y-112026000D01*
X227224000Y-110974000D01*
X228201000Y-110974000D01*
X228201000Y-112026000D01*
X228201000Y-112026000D01*
G37*
G36*
X222901000Y-110551000D02*
X221599000Y-110551000D01*
X221599000Y-109449000D01*
X222901000Y-109449000D01*
X222901000Y-110551000D01*
X222901000Y-110551000D01*
G37*
G36*
X218401000Y-110551000D02*
X217099000Y-110551000D01*
X217099000Y-109449000D01*
X218401000Y-109449000D01*
X218401000Y-110551000D01*
X218401000Y-110551000D01*
G37*
G36*
X229776000Y-110526000D02*
X228799000Y-110526000D01*
X228799000Y-109474000D01*
X229776000Y-109474000D01*
X229776000Y-110526000D01*
X229776000Y-110526000D01*
G37*
G36*
X228201000Y-110526000D02*
X227224000Y-110526000D01*
X227224000Y-109474000D01*
X228201000Y-109474000D01*
X228201000Y-110526000D01*
X228201000Y-110526000D01*
G37*
G36*
X255375256Y-106391298D02*
X255481579Y-106412447D01*
X255782042Y-106536903D01*
X256048852Y-106715180D01*
X256052454Y-106717587D01*
X256282413Y-106947546D01*
X256282415Y-106947549D01*
X256463097Y-107217958D01*
X256587553Y-107518421D01*
X256651000Y-107837391D01*
X256651000Y-108162609D01*
X256587553Y-108481579D01*
X256463097Y-108782042D01*
X256300089Y-109026000D01*
X256282413Y-109052454D01*
X256052454Y-109282413D01*
X256052451Y-109282415D01*
X255782042Y-109463097D01*
X255481579Y-109587553D01*
X255375256Y-109608702D01*
X255162611Y-109651000D01*
X254837389Y-109651000D01*
X254624744Y-109608702D01*
X254518421Y-109587553D01*
X254217958Y-109463097D01*
X253947549Y-109282415D01*
X253947546Y-109282413D01*
X253717587Y-109052454D01*
X253699911Y-109026000D01*
X253536903Y-108782042D01*
X253412447Y-108481579D01*
X253349000Y-108162609D01*
X253349000Y-107837391D01*
X253412447Y-107518421D01*
X253536903Y-107217958D01*
X253717585Y-106947549D01*
X253717587Y-106947546D01*
X253947546Y-106717587D01*
X253951148Y-106715180D01*
X254217958Y-106536903D01*
X254518421Y-106412447D01*
X254624744Y-106391298D01*
X254837389Y-106349000D01*
X255162611Y-106349000D01*
X255375256Y-106391298D01*
X255375256Y-106391298D01*
G37*
G36*
X228201000Y-109026000D02*
X227224000Y-109026000D01*
X227224000Y-107974000D01*
X228201000Y-107974000D01*
X228201000Y-109026000D01*
X228201000Y-109026000D01*
G37*
G36*
X229776000Y-109026000D02*
X228799000Y-109026000D01*
X228799000Y-107974000D01*
X229776000Y-107974000D01*
X229776000Y-109026000D01*
X229776000Y-109026000D01*
G37*
G36*
X222901000Y-108951000D02*
X221599000Y-108951000D01*
X221599000Y-107849000D01*
X222901000Y-107849000D01*
X222901000Y-108951000D01*
X222901000Y-108951000D01*
G37*
G36*
X218401000Y-108951000D02*
X217099000Y-108951000D01*
X217099000Y-107849000D01*
X218401000Y-107849000D01*
X218401000Y-108951000D01*
X218401000Y-108951000D01*
G37*
G36*
X249560442Y-103105518D02*
X249626627Y-103112037D01*
X249739853Y-103146384D01*
X249796467Y-103163557D01*
X249935087Y-103237652D01*
X249952991Y-103247222D01*
X249988729Y-103276552D01*
X250090186Y-103359814D01*
X250173448Y-103461271D01*
X250202778Y-103497009D01*
X250202779Y-103497011D01*
X250286443Y-103653533D01*
X250286443Y-103653534D01*
X250337963Y-103823373D01*
X250355359Y-104000000D01*
X250337963Y-104176627D01*
X250303616Y-104289853D01*
X250286443Y-104346467D01*
X250212348Y-104485087D01*
X250202778Y-104502991D01*
X250173448Y-104538729D01*
X250090186Y-104640186D01*
X249988729Y-104723448D01*
X249952991Y-104752778D01*
X249952989Y-104752779D01*
X249796467Y-104836443D01*
X249739853Y-104853616D01*
X249626627Y-104887963D01*
X249560442Y-104894482D01*
X249494260Y-104901000D01*
X249405740Y-104901000D01*
X249339558Y-104894482D01*
X249273373Y-104887963D01*
X249160147Y-104853616D01*
X249103533Y-104836443D01*
X248947011Y-104752779D01*
X248947009Y-104752778D01*
X248911271Y-104723448D01*
X248809814Y-104640186D01*
X248726552Y-104538729D01*
X248697222Y-104502991D01*
X248687652Y-104485087D01*
X248613557Y-104346467D01*
X248596384Y-104289853D01*
X248562037Y-104176627D01*
X248544641Y-104000000D01*
X248562037Y-103823373D01*
X248613557Y-103653534D01*
X248613557Y-103653533D01*
X248697221Y-103497011D01*
X248697222Y-103497009D01*
X248726552Y-103461271D01*
X248809814Y-103359814D01*
X248911271Y-103276552D01*
X248947009Y-103247222D01*
X248964913Y-103237652D01*
X249103533Y-103163557D01*
X249160147Y-103146384D01*
X249273373Y-103112037D01*
X249339558Y-103105518D01*
X249405740Y-103099000D01*
X249494260Y-103099000D01*
X249560442Y-103105518D01*
X249560442Y-103105518D01*
G37*
G36*
X237651000Y-104901000D02*
X235849000Y-104901000D01*
X235849000Y-103099000D01*
X237651000Y-103099000D01*
X237651000Y-104901000D01*
X237651000Y-104901000D01*
G37*
G36*
X241940442Y-103105518D02*
X242006627Y-103112037D01*
X242119853Y-103146384D01*
X242176467Y-103163557D01*
X242315087Y-103237652D01*
X242332991Y-103247222D01*
X242368729Y-103276552D01*
X242470186Y-103359814D01*
X242553448Y-103461271D01*
X242582778Y-103497009D01*
X242582779Y-103497011D01*
X242666443Y-103653533D01*
X242666443Y-103653534D01*
X242717963Y-103823373D01*
X242735359Y-104000000D01*
X242717963Y-104176627D01*
X242683616Y-104289853D01*
X242666443Y-104346467D01*
X242592348Y-104485087D01*
X242582778Y-104502991D01*
X242553448Y-104538729D01*
X242470186Y-104640186D01*
X242368729Y-104723448D01*
X242332991Y-104752778D01*
X242332989Y-104752779D01*
X242176467Y-104836443D01*
X242119853Y-104853616D01*
X242006627Y-104887963D01*
X241940442Y-104894482D01*
X241874260Y-104901000D01*
X241785740Y-104901000D01*
X241719558Y-104894482D01*
X241653373Y-104887963D01*
X241540147Y-104853616D01*
X241483533Y-104836443D01*
X241327011Y-104752779D01*
X241327009Y-104752778D01*
X241291271Y-104723448D01*
X241189814Y-104640186D01*
X241106552Y-104538729D01*
X241077222Y-104502991D01*
X241067652Y-104485087D01*
X240993557Y-104346467D01*
X240976384Y-104289853D01*
X240942037Y-104176627D01*
X240924641Y-104000000D01*
X240942037Y-103823373D01*
X240993557Y-103653534D01*
X240993557Y-103653533D01*
X241077221Y-103497011D01*
X241077222Y-103497009D01*
X241106552Y-103461271D01*
X241189814Y-103359814D01*
X241291271Y-103276552D01*
X241327009Y-103247222D01*
X241344913Y-103237652D01*
X241483533Y-103163557D01*
X241540147Y-103146384D01*
X241653373Y-103112037D01*
X241719558Y-103105518D01*
X241785740Y-103099000D01*
X241874260Y-103099000D01*
X241940442Y-103105518D01*
X241940442Y-103105518D01*
G37*
G36*
X244480442Y-103105518D02*
X244546627Y-103112037D01*
X244659853Y-103146384D01*
X244716467Y-103163557D01*
X244855087Y-103237652D01*
X244872991Y-103247222D01*
X244908729Y-103276552D01*
X245010186Y-103359814D01*
X245093448Y-103461271D01*
X245122778Y-103497009D01*
X245122779Y-103497011D01*
X245206443Y-103653533D01*
X245206443Y-103653534D01*
X245257963Y-103823373D01*
X245275359Y-104000000D01*
X245257963Y-104176627D01*
X245223616Y-104289853D01*
X245206443Y-104346467D01*
X245132348Y-104485087D01*
X245122778Y-104502991D01*
X245093448Y-104538729D01*
X245010186Y-104640186D01*
X244908729Y-104723448D01*
X244872991Y-104752778D01*
X244872989Y-104752779D01*
X244716467Y-104836443D01*
X244659853Y-104853616D01*
X244546627Y-104887963D01*
X244480442Y-104894482D01*
X244414260Y-104901000D01*
X244325740Y-104901000D01*
X244259558Y-104894482D01*
X244193373Y-104887963D01*
X244080147Y-104853616D01*
X244023533Y-104836443D01*
X243867011Y-104752779D01*
X243867009Y-104752778D01*
X243831271Y-104723448D01*
X243729814Y-104640186D01*
X243646552Y-104538729D01*
X243617222Y-104502991D01*
X243607652Y-104485087D01*
X243533557Y-104346467D01*
X243516384Y-104289853D01*
X243482037Y-104176627D01*
X243464641Y-104000000D01*
X243482037Y-103823373D01*
X243533557Y-103653534D01*
X243533557Y-103653533D01*
X243617221Y-103497011D01*
X243617222Y-103497009D01*
X243646552Y-103461271D01*
X243729814Y-103359814D01*
X243831271Y-103276552D01*
X243867009Y-103247222D01*
X243884913Y-103237652D01*
X244023533Y-103163557D01*
X244080147Y-103146384D01*
X244193373Y-103112037D01*
X244259558Y-103105518D01*
X244325740Y-103099000D01*
X244414260Y-103099000D01*
X244480442Y-103105518D01*
X244480442Y-103105518D01*
G37*
G36*
X247020442Y-103105518D02*
X247086627Y-103112037D01*
X247199853Y-103146384D01*
X247256467Y-103163557D01*
X247395087Y-103237652D01*
X247412991Y-103247222D01*
X247448729Y-103276552D01*
X247550186Y-103359814D01*
X247633448Y-103461271D01*
X247662778Y-103497009D01*
X247662779Y-103497011D01*
X247746443Y-103653533D01*
X247746443Y-103653534D01*
X247797963Y-103823373D01*
X247815359Y-104000000D01*
X247797963Y-104176627D01*
X247763616Y-104289853D01*
X247746443Y-104346467D01*
X247672348Y-104485087D01*
X247662778Y-104502991D01*
X247633448Y-104538729D01*
X247550186Y-104640186D01*
X247448729Y-104723448D01*
X247412991Y-104752778D01*
X247412989Y-104752779D01*
X247256467Y-104836443D01*
X247199853Y-104853616D01*
X247086627Y-104887963D01*
X247020442Y-104894482D01*
X246954260Y-104901000D01*
X246865740Y-104901000D01*
X246799558Y-104894482D01*
X246733373Y-104887963D01*
X246620147Y-104853616D01*
X246563533Y-104836443D01*
X246407011Y-104752779D01*
X246407009Y-104752778D01*
X246371271Y-104723448D01*
X246269814Y-104640186D01*
X246186552Y-104538729D01*
X246157222Y-104502991D01*
X246147652Y-104485087D01*
X246073557Y-104346467D01*
X246056384Y-104289853D01*
X246022037Y-104176627D01*
X246004641Y-104000000D01*
X246022037Y-103823373D01*
X246073557Y-103653534D01*
X246073557Y-103653533D01*
X246157221Y-103497011D01*
X246157222Y-103497009D01*
X246186552Y-103461271D01*
X246269814Y-103359814D01*
X246371271Y-103276552D01*
X246407009Y-103247222D01*
X246424913Y-103237652D01*
X246563533Y-103163557D01*
X246620147Y-103146384D01*
X246733373Y-103112037D01*
X246799558Y-103105518D01*
X246865740Y-103099000D01*
X246954260Y-103099000D01*
X247020442Y-103105518D01*
X247020442Y-103105518D01*
G37*
G36*
X239400442Y-103105518D02*
X239466627Y-103112037D01*
X239579853Y-103146384D01*
X239636467Y-103163557D01*
X239775087Y-103237652D01*
X239792991Y-103247222D01*
X239828729Y-103276552D01*
X239930186Y-103359814D01*
X240013448Y-103461271D01*
X240042778Y-103497009D01*
X240042779Y-103497011D01*
X240126443Y-103653533D01*
X240126443Y-103653534D01*
X240177963Y-103823373D01*
X240195359Y-104000000D01*
X240177963Y-104176627D01*
X240143616Y-104289853D01*
X240126443Y-104346467D01*
X240052348Y-104485087D01*
X240042778Y-104502991D01*
X240013448Y-104538729D01*
X239930186Y-104640186D01*
X239828729Y-104723448D01*
X239792991Y-104752778D01*
X239792989Y-104752779D01*
X239636467Y-104836443D01*
X239579853Y-104853616D01*
X239466627Y-104887963D01*
X239400442Y-104894482D01*
X239334260Y-104901000D01*
X239245740Y-104901000D01*
X239179558Y-104894482D01*
X239113373Y-104887963D01*
X239000147Y-104853616D01*
X238943533Y-104836443D01*
X238787011Y-104752779D01*
X238787009Y-104752778D01*
X238751271Y-104723448D01*
X238649814Y-104640186D01*
X238566552Y-104538729D01*
X238537222Y-104502991D01*
X238527652Y-104485087D01*
X238453557Y-104346467D01*
X238436384Y-104289853D01*
X238402037Y-104176627D01*
X238384641Y-104000000D01*
X238402037Y-103823373D01*
X238453557Y-103653534D01*
X238453557Y-103653533D01*
X238537221Y-103497011D01*
X238537222Y-103497009D01*
X238566552Y-103461271D01*
X238649814Y-103359814D01*
X238751271Y-103276552D01*
X238787009Y-103247222D01*
X238804913Y-103237652D01*
X238943533Y-103163557D01*
X239000147Y-103146384D01*
X239113373Y-103112037D01*
X239179558Y-103105518D01*
X239245740Y-103099000D01*
X239334260Y-103099000D01*
X239400442Y-103105518D01*
X239400442Y-103105518D01*
G37*
G36*
X248976000Y-101676000D02*
X247924000Y-101676000D01*
X247924000Y-100699000D01*
X248976000Y-100699000D01*
X248976000Y-101676000D01*
X248976000Y-101676000D01*
G37*
G36*
X251201000Y-101676000D02*
X250149000Y-101676000D01*
X250149000Y-100699000D01*
X251201000Y-100699000D01*
X251201000Y-101676000D01*
X251201000Y-101676000D01*
G37*
G36*
X247476000Y-101676000D02*
X246424000Y-101676000D01*
X246424000Y-100699000D01*
X247476000Y-100699000D01*
X247476000Y-101676000D01*
X247476000Y-101676000D01*
G37*
G36*
X247476000Y-100101000D02*
X246424000Y-100101000D01*
X246424000Y-99124000D01*
X247476000Y-99124000D01*
X247476000Y-100101000D01*
X247476000Y-100101000D01*
G37*
G36*
X248976000Y-100101000D02*
X247924000Y-100101000D01*
X247924000Y-99124000D01*
X248976000Y-99124000D01*
X248976000Y-100101000D01*
X248976000Y-100101000D01*
G37*
G36*
X251201000Y-100101000D02*
X250149000Y-100101000D01*
X250149000Y-99124000D01*
X251201000Y-99124000D01*
X251201000Y-100101000D01*
X251201000Y-100101000D01*
G37*
G36*
X194001000Y-99401000D02*
X192999000Y-99401000D01*
X192999000Y-98499000D01*
X194001000Y-98499000D01*
X194001000Y-99401000D01*
X194001000Y-99401000D01*
G37*
G36*
X195726000Y-99276000D02*
X194674000Y-99276000D01*
X194674000Y-98299000D01*
X195726000Y-98299000D01*
X195726000Y-99276000D01*
X195726000Y-99276000D01*
G37*
G36*
X197226000Y-99276000D02*
X196174000Y-99276000D01*
X196174000Y-98299000D01*
X197226000Y-98299000D01*
X197226000Y-99276000D01*
X197226000Y-99276000D01*
G37*
G36*
X187977396Y-97085546D02*
X188150466Y-97157234D01*
X188306230Y-97261312D01*
X188438688Y-97393770D01*
X188542766Y-97549534D01*
X188614454Y-97722604D01*
X188651000Y-97906333D01*
X188651000Y-98093667D01*
X188614454Y-98277396D01*
X188542766Y-98450466D01*
X188438688Y-98606230D01*
X188306230Y-98738688D01*
X188150466Y-98842766D01*
X187977396Y-98914454D01*
X187793667Y-98951000D01*
X187606333Y-98951000D01*
X187422604Y-98914454D01*
X187249534Y-98842766D01*
X187093770Y-98738688D01*
X186961312Y-98606230D01*
X186857234Y-98450466D01*
X186785546Y-98277396D01*
X186749000Y-98093667D01*
X186749000Y-97906333D01*
X186785546Y-97722604D01*
X186857234Y-97549534D01*
X186961312Y-97393770D01*
X187093770Y-97261312D01*
X187249534Y-97157234D01*
X187422604Y-97085546D01*
X187606333Y-97049000D01*
X187793667Y-97049000D01*
X187977396Y-97085546D01*
X187977396Y-97085546D01*
G37*
G36*
X192001000Y-98451000D02*
X190999000Y-98451000D01*
X190999000Y-97549000D01*
X192001000Y-97549000D01*
X192001000Y-98451000D01*
X192001000Y-98451000D01*
G37*
G36*
X248621000Y-98056000D02*
X247619000Y-98056000D01*
X247619000Y-95954000D01*
X248621000Y-95954000D01*
X248621000Y-98056000D01*
X248621000Y-98056000D01*
G37*
G36*
X247351000Y-98056000D02*
X246349000Y-98056000D01*
X246349000Y-95954000D01*
X247351000Y-95954000D01*
X247351000Y-98056000D01*
X247351000Y-98056000D01*
G37*
G36*
X249891000Y-98056000D02*
X248889000Y-98056000D01*
X248889000Y-95954000D01*
X249891000Y-95954000D01*
X249891000Y-98056000D01*
X249891000Y-98056000D01*
G37*
G36*
X251161000Y-98056000D02*
X250159000Y-98056000D01*
X250159000Y-95954000D01*
X251161000Y-95954000D01*
X251161000Y-98056000D01*
X251161000Y-98056000D01*
G37*
G36*
X242271000Y-98056000D02*
X241269000Y-98056000D01*
X241269000Y-95954000D01*
X242271000Y-95954000D01*
X242271000Y-98056000D01*
X242271000Y-98056000D01*
G37*
G36*
X241001000Y-98056000D02*
X239999000Y-98056000D01*
X239999000Y-95954000D01*
X241001000Y-95954000D01*
X241001000Y-98056000D01*
X241001000Y-98056000D01*
G37*
G36*
X239731000Y-98056000D02*
X238729000Y-98056000D01*
X238729000Y-95954000D01*
X239731000Y-95954000D01*
X239731000Y-98056000D01*
X239731000Y-98056000D01*
G37*
G36*
X244811000Y-98056000D02*
X243809000Y-98056000D01*
X243809000Y-95954000D01*
X244811000Y-95954000D01*
X244811000Y-98056000D01*
X244811000Y-98056000D01*
G37*
G36*
X243541000Y-98056000D02*
X242539000Y-98056000D01*
X242539000Y-95954000D01*
X243541000Y-95954000D01*
X243541000Y-98056000D01*
X243541000Y-98056000D01*
G37*
G36*
X246081000Y-98056000D02*
X245079000Y-98056000D01*
X245079000Y-95954000D01*
X246081000Y-95954000D01*
X246081000Y-98056000D01*
X246081000Y-98056000D01*
G37*
G36*
X197226000Y-97701000D02*
X196174000Y-97701000D01*
X196174000Y-96724000D01*
X197226000Y-96724000D01*
X197226000Y-97701000D01*
X197226000Y-97701000D01*
G37*
G36*
X195726000Y-97701000D02*
X194674000Y-97701000D01*
X194674000Y-96724000D01*
X195726000Y-96724000D01*
X195726000Y-97701000D01*
X195726000Y-97701000D01*
G37*
G36*
X194001000Y-97501000D02*
X192999000Y-97501000D01*
X192999000Y-96599000D01*
X194001000Y-96599000D01*
X194001000Y-97501000D01*
X194001000Y-97501000D01*
G37*
G36*
X232751000Y-96526000D02*
X231774000Y-96526000D01*
X231774000Y-95474000D01*
X232751000Y-95474000D01*
X232751000Y-96526000D01*
X232751000Y-96526000D01*
G37*
G36*
X234326000Y-96526000D02*
X233349000Y-96526000D01*
X233349000Y-95474000D01*
X234326000Y-95474000D01*
X234326000Y-96526000D01*
X234326000Y-96526000D01*
G37*
G36*
X237496000Y-96506000D02*
X235394000Y-96506000D01*
X235394000Y-95504000D01*
X237496000Y-95504000D01*
X237496000Y-96506000D01*
X237496000Y-96506000D01*
G37*
G36*
X254496000Y-96506000D02*
X252394000Y-96506000D01*
X252394000Y-95504000D01*
X254496000Y-95504000D01*
X254496000Y-96506000D01*
X254496000Y-96506000D01*
G37*
G36*
X188651000Y-96451000D02*
X186749000Y-96451000D01*
X186749000Y-94549000D01*
X188651000Y-94549000D01*
X188651000Y-96451000D01*
X188651000Y-96451000D01*
G37*
G36*
X237496000Y-95236000D02*
X235394000Y-95236000D01*
X235394000Y-94234000D01*
X237496000Y-94234000D01*
X237496000Y-95236000D01*
X237496000Y-95236000D01*
G37*
G36*
X254496000Y-95236000D02*
X252394000Y-95236000D01*
X252394000Y-94234000D01*
X254496000Y-94234000D01*
X254496000Y-95236000D01*
X254496000Y-95236000D01*
G37*
G36*
X234376000Y-94026000D02*
X233399000Y-94026000D01*
X233399000Y-92974000D01*
X234376000Y-92974000D01*
X234376000Y-94026000D01*
X234376000Y-94026000D01*
G37*
G36*
X232801000Y-94026000D02*
X231824000Y-94026000D01*
X231824000Y-92974000D01*
X232801000Y-92974000D01*
X232801000Y-94026000D01*
X232801000Y-94026000D01*
G37*
G36*
X254496000Y-93966000D02*
X252394000Y-93966000D01*
X252394000Y-92964000D01*
X254496000Y-92964000D01*
X254496000Y-93966000D01*
X254496000Y-93966000D01*
G37*
G36*
X237496000Y-93966000D02*
X235394000Y-93966000D01*
X235394000Y-92964000D01*
X237496000Y-92964000D01*
X237496000Y-93966000D01*
X237496000Y-93966000D01*
G37*
G36*
X237496000Y-92696000D02*
X235394000Y-92696000D01*
X235394000Y-91694000D01*
X237496000Y-91694000D01*
X237496000Y-92696000D01*
X237496000Y-92696000D01*
G37*
G36*
X254496000Y-92696000D02*
X252394000Y-92696000D01*
X252394000Y-91694000D01*
X254496000Y-91694000D01*
X254496000Y-92696000D01*
X254496000Y-92696000D01*
G37*
G36*
X254496000Y-91426000D02*
X252394000Y-91426000D01*
X252394000Y-90424000D01*
X254496000Y-90424000D01*
X254496000Y-91426000D01*
X254496000Y-91426000D01*
G37*
G36*
X237496000Y-91426000D02*
X235394000Y-91426000D01*
X235394000Y-90424000D01*
X237496000Y-90424000D01*
X237496000Y-91426000D01*
X237496000Y-91426000D01*
G37*
G36*
X194001000Y-90901000D02*
X192999000Y-90901000D01*
X192999000Y-89999000D01*
X194001000Y-89999000D01*
X194001000Y-90901000D01*
X194001000Y-90901000D01*
G37*
G36*
X195726000Y-90776000D02*
X194674000Y-90776000D01*
X194674000Y-89799000D01*
X195726000Y-89799000D01*
X195726000Y-90776000D01*
X195726000Y-90776000D01*
G37*
G36*
X197226000Y-90776000D02*
X196174000Y-90776000D01*
X196174000Y-89799000D01*
X197226000Y-89799000D01*
X197226000Y-90776000D01*
X197226000Y-90776000D01*
G37*
G36*
X187977396Y-88585546D02*
X188150466Y-88657234D01*
X188306230Y-88761312D01*
X188438688Y-88893770D01*
X188542766Y-89049534D01*
X188614454Y-89222604D01*
X188651000Y-89406333D01*
X188651000Y-89593667D01*
X188614454Y-89777396D01*
X188542766Y-89950466D01*
X188438688Y-90106230D01*
X188306230Y-90238688D01*
X188150466Y-90342766D01*
X187977396Y-90414454D01*
X187793667Y-90451000D01*
X187606333Y-90451000D01*
X187422604Y-90414454D01*
X187249534Y-90342766D01*
X187093770Y-90238688D01*
X186961312Y-90106230D01*
X186857234Y-89950466D01*
X186785546Y-89777396D01*
X186749000Y-89593667D01*
X186749000Y-89406333D01*
X186785546Y-89222604D01*
X186857234Y-89049534D01*
X186961312Y-88893770D01*
X187093770Y-88761312D01*
X187249534Y-88657234D01*
X187422604Y-88585546D01*
X187606333Y-88549000D01*
X187793667Y-88549000D01*
X187977396Y-88585546D01*
X187977396Y-88585546D01*
G37*
G36*
X237496000Y-90156000D02*
X235394000Y-90156000D01*
X235394000Y-89154000D01*
X237496000Y-89154000D01*
X237496000Y-90156000D01*
X237496000Y-90156000D01*
G37*
G36*
X254496000Y-90156000D02*
X252394000Y-90156000D01*
X252394000Y-89154000D01*
X254496000Y-89154000D01*
X254496000Y-90156000D01*
X254496000Y-90156000D01*
G37*
G36*
X192001000Y-89951000D02*
X190999000Y-89951000D01*
X190999000Y-89049000D01*
X192001000Y-89049000D01*
X192001000Y-89951000D01*
X192001000Y-89951000D01*
G37*
G36*
X246481000Y-89531000D02*
X241379000Y-89531000D01*
X241379000Y-84429000D01*
X246481000Y-84429000D01*
X246481000Y-89531000D01*
X246481000Y-89531000D01*
G37*
G36*
X195726000Y-89201000D02*
X194674000Y-89201000D01*
X194674000Y-88224000D01*
X195726000Y-88224000D01*
X195726000Y-89201000D01*
X195726000Y-89201000D01*
G37*
G36*
X197226000Y-89201000D02*
X196174000Y-89201000D01*
X196174000Y-88224000D01*
X197226000Y-88224000D01*
X197226000Y-89201000D01*
X197226000Y-89201000D01*
G37*
G36*
X194001000Y-89001000D02*
X192999000Y-89001000D01*
X192999000Y-88099000D01*
X194001000Y-88099000D01*
X194001000Y-89001000D01*
X194001000Y-89001000D01*
G37*
G36*
X254496000Y-88886000D02*
X252394000Y-88886000D01*
X252394000Y-87884000D01*
X254496000Y-87884000D01*
X254496000Y-88886000D01*
X254496000Y-88886000D01*
G37*
G36*
X237496000Y-88886000D02*
X235394000Y-88886000D01*
X235394000Y-87884000D01*
X237496000Y-87884000D01*
X237496000Y-88886000D01*
X237496000Y-88886000D01*
G37*
G36*
X188651000Y-87951000D02*
X186749000Y-87951000D01*
X186749000Y-86049000D01*
X188651000Y-86049000D01*
X188651000Y-87951000D01*
X188651000Y-87951000D01*
G37*
G36*
X254496000Y-87616000D02*
X252394000Y-87616000D01*
X252394000Y-86614000D01*
X254496000Y-86614000D01*
X254496000Y-87616000D01*
X254496000Y-87616000D01*
G37*
G36*
X237496000Y-87616000D02*
X235394000Y-87616000D01*
X235394000Y-86614000D01*
X237496000Y-86614000D01*
X237496000Y-87616000D01*
X237496000Y-87616000D01*
G37*
G36*
X254496000Y-86346000D02*
X252394000Y-86346000D01*
X252394000Y-85344000D01*
X254496000Y-85344000D01*
X254496000Y-86346000D01*
X254496000Y-86346000D01*
G37*
G36*
X237496000Y-86346000D02*
X235394000Y-86346000D01*
X235394000Y-85344000D01*
X237496000Y-85344000D01*
X237496000Y-86346000D01*
X237496000Y-86346000D01*
G37*
G36*
X254496000Y-85076000D02*
X252394000Y-85076000D01*
X252394000Y-84074000D01*
X254496000Y-84074000D01*
X254496000Y-85076000D01*
X254496000Y-85076000D01*
G37*
G36*
X237496000Y-85076000D02*
X235394000Y-85076000D01*
X235394000Y-84074000D01*
X237496000Y-84074000D01*
X237496000Y-85076000D01*
X237496000Y-85076000D01*
G37*
G36*
X254496000Y-83806000D02*
X252394000Y-83806000D01*
X252394000Y-82804000D01*
X254496000Y-82804000D01*
X254496000Y-83806000D01*
X254496000Y-83806000D01*
G37*
G36*
X237496000Y-83806000D02*
X235394000Y-83806000D01*
X235394000Y-82804000D01*
X237496000Y-82804000D01*
X237496000Y-83806000D01*
X237496000Y-83806000D01*
G37*
G36*
X234326000Y-82826000D02*
X233274000Y-82826000D01*
X233274000Y-81849000D01*
X234326000Y-81849000D01*
X234326000Y-82826000D01*
X234326000Y-82826000D01*
G37*
G36*
X232679591Y-81853085D02*
X232713569Y-81863393D01*
X232744887Y-81880133D01*
X232772339Y-81902661D01*
X232794867Y-81930113D01*
X232811607Y-81961431D01*
X232821915Y-81995409D01*
X232826000Y-82036890D01*
X232826000Y-82638110D01*
X232821915Y-82679591D01*
X232811607Y-82713569D01*
X232794867Y-82744887D01*
X232772339Y-82772339D01*
X232744887Y-82794867D01*
X232713569Y-82811607D01*
X232679591Y-82821915D01*
X232638110Y-82826000D01*
X231961890Y-82826000D01*
X231920409Y-82821915D01*
X231886431Y-82811607D01*
X231855113Y-82794867D01*
X231827661Y-82772339D01*
X231805133Y-82744887D01*
X231788393Y-82713569D01*
X231778085Y-82679591D01*
X231774000Y-82638110D01*
X231774000Y-82036890D01*
X231778085Y-81995409D01*
X231788393Y-81961431D01*
X231805133Y-81930113D01*
X231827661Y-81902661D01*
X231855113Y-81880133D01*
X231886431Y-81863393D01*
X231920409Y-81853085D01*
X231961890Y-81849000D01*
X232638110Y-81849000D01*
X232679591Y-81853085D01*
X232679591Y-81853085D01*
G37*
G36*
X231179591Y-81853085D02*
X231213569Y-81863393D01*
X231244887Y-81880133D01*
X231272339Y-81902661D01*
X231294867Y-81930113D01*
X231311607Y-81961431D01*
X231321915Y-81995409D01*
X231326000Y-82036890D01*
X231326000Y-82638110D01*
X231321915Y-82679591D01*
X231311607Y-82713569D01*
X231294867Y-82744887D01*
X231272339Y-82772339D01*
X231244887Y-82794867D01*
X231213569Y-82811607D01*
X231179591Y-82821915D01*
X231138110Y-82826000D01*
X230461890Y-82826000D01*
X230420409Y-82821915D01*
X230386431Y-82811607D01*
X230355113Y-82794867D01*
X230327661Y-82772339D01*
X230305133Y-82744887D01*
X230288393Y-82713569D01*
X230278085Y-82679591D01*
X230274000Y-82638110D01*
X230274000Y-82036890D01*
X230278085Y-81995409D01*
X230288393Y-81961431D01*
X230305133Y-81930113D01*
X230327661Y-81902661D01*
X230355113Y-81880133D01*
X230386431Y-81863393D01*
X230420409Y-81853085D01*
X230461890Y-81849000D01*
X231138110Y-81849000D01*
X231179591Y-81853085D01*
X231179591Y-81853085D01*
G37*
G36*
X237496000Y-82536000D02*
X235394000Y-82536000D01*
X235394000Y-81534000D01*
X237496000Y-81534000D01*
X237496000Y-82536000D01*
X237496000Y-82536000D01*
G37*
G36*
X254496000Y-82536000D02*
X252394000Y-82536000D01*
X252394000Y-81534000D01*
X254496000Y-81534000D01*
X254496000Y-82536000D01*
X254496000Y-82536000D01*
G37*
G36*
X194001000Y-82401000D02*
X192999000Y-82401000D01*
X192999000Y-81499000D01*
X194001000Y-81499000D01*
X194001000Y-82401000D01*
X194001000Y-82401000D01*
G37*
G36*
X197226000Y-82276000D02*
X196174000Y-82276000D01*
X196174000Y-81299000D01*
X197226000Y-81299000D01*
X197226000Y-82276000D01*
X197226000Y-82276000D01*
G37*
G36*
X195726000Y-82276000D02*
X194674000Y-82276000D01*
X194674000Y-81299000D01*
X195726000Y-81299000D01*
X195726000Y-82276000D01*
X195726000Y-82276000D01*
G37*
G36*
X187977396Y-80085546D02*
X188150466Y-80157234D01*
X188306230Y-80261312D01*
X188438688Y-80393770D01*
X188542766Y-80549534D01*
X188614454Y-80722604D01*
X188651000Y-80906333D01*
X188651000Y-81093667D01*
X188614454Y-81277396D01*
X188542766Y-81450466D01*
X188438688Y-81606230D01*
X188306230Y-81738688D01*
X188150466Y-81842766D01*
X187977396Y-81914454D01*
X187793667Y-81951000D01*
X187606333Y-81951000D01*
X187422604Y-81914454D01*
X187249534Y-81842766D01*
X187093770Y-81738688D01*
X186961312Y-81606230D01*
X186857234Y-81450466D01*
X186785546Y-81277396D01*
X186749000Y-81093667D01*
X186749000Y-80906333D01*
X186785546Y-80722604D01*
X186857234Y-80549534D01*
X186961312Y-80393770D01*
X187093770Y-80261312D01*
X187249534Y-80157234D01*
X187422604Y-80085546D01*
X187606333Y-80049000D01*
X187793667Y-80049000D01*
X187977396Y-80085546D01*
X187977396Y-80085546D01*
G37*
G36*
X192001000Y-81451000D02*
X190999000Y-81451000D01*
X190999000Y-80549000D01*
X192001000Y-80549000D01*
X192001000Y-81451000D01*
X192001000Y-81451000D01*
G37*
G36*
X237496000Y-81266000D02*
X235394000Y-81266000D01*
X235394000Y-80264000D01*
X237496000Y-80264000D01*
X237496000Y-81266000D01*
X237496000Y-81266000D01*
G37*
G36*
X254496000Y-81266000D02*
X252394000Y-81266000D01*
X252394000Y-80264000D01*
X254496000Y-80264000D01*
X254496000Y-81266000D01*
X254496000Y-81266000D01*
G37*
G36*
X231179591Y-80278085D02*
X231213569Y-80288393D01*
X231244887Y-80305133D01*
X231272339Y-80327661D01*
X231294867Y-80355113D01*
X231311607Y-80386431D01*
X231321915Y-80420409D01*
X231326000Y-80461890D01*
X231326000Y-81063110D01*
X231321915Y-81104591D01*
X231311607Y-81138569D01*
X231294867Y-81169887D01*
X231272339Y-81197339D01*
X231244887Y-81219867D01*
X231213569Y-81236607D01*
X231179591Y-81246915D01*
X231138110Y-81251000D01*
X230461890Y-81251000D01*
X230420409Y-81246915D01*
X230386431Y-81236607D01*
X230355113Y-81219867D01*
X230327661Y-81197339D01*
X230305133Y-81169887D01*
X230288393Y-81138569D01*
X230278085Y-81104591D01*
X230274000Y-81063110D01*
X230274000Y-80461890D01*
X230278085Y-80420409D01*
X230288393Y-80386431D01*
X230305133Y-80355113D01*
X230327661Y-80327661D01*
X230355113Y-80305133D01*
X230386431Y-80288393D01*
X230420409Y-80278085D01*
X230461890Y-80274000D01*
X231138110Y-80274000D01*
X231179591Y-80278085D01*
X231179591Y-80278085D01*
G37*
G36*
X232679591Y-80278085D02*
X232713569Y-80288393D01*
X232744887Y-80305133D01*
X232772339Y-80327661D01*
X232794867Y-80355113D01*
X232811607Y-80386431D01*
X232821915Y-80420409D01*
X232826000Y-80461890D01*
X232826000Y-81063110D01*
X232821915Y-81104591D01*
X232811607Y-81138569D01*
X232794867Y-81169887D01*
X232772339Y-81197339D01*
X232744887Y-81219867D01*
X232713569Y-81236607D01*
X232679591Y-81246915D01*
X232638110Y-81251000D01*
X231961890Y-81251000D01*
X231920409Y-81246915D01*
X231886431Y-81236607D01*
X231855113Y-81219867D01*
X231827661Y-81197339D01*
X231805133Y-81169887D01*
X231788393Y-81138569D01*
X231778085Y-81104591D01*
X231774000Y-81063110D01*
X231774000Y-80461890D01*
X231778085Y-80420409D01*
X231788393Y-80386431D01*
X231805133Y-80355113D01*
X231827661Y-80327661D01*
X231855113Y-80305133D01*
X231886431Y-80288393D01*
X231920409Y-80278085D01*
X231961890Y-80274000D01*
X232638110Y-80274000D01*
X232679591Y-80278085D01*
X232679591Y-80278085D01*
G37*
G36*
X234326000Y-81251000D02*
X233274000Y-81251000D01*
X233274000Y-80274000D01*
X234326000Y-80274000D01*
X234326000Y-81251000D01*
X234326000Y-81251000D01*
G37*
G36*
X197226000Y-80701000D02*
X196174000Y-80701000D01*
X196174000Y-79724000D01*
X197226000Y-79724000D01*
X197226000Y-80701000D01*
X197226000Y-80701000D01*
G37*
G36*
X195726000Y-80701000D02*
X194674000Y-80701000D01*
X194674000Y-79724000D01*
X195726000Y-79724000D01*
X195726000Y-80701000D01*
X195726000Y-80701000D01*
G37*
G36*
X194001000Y-80501000D02*
X192999000Y-80501000D01*
X192999000Y-79599000D01*
X194001000Y-79599000D01*
X194001000Y-80501000D01*
X194001000Y-80501000D01*
G37*
G36*
X254496000Y-79996000D02*
X252394000Y-79996000D01*
X252394000Y-78994000D01*
X254496000Y-78994000D01*
X254496000Y-79996000D01*
X254496000Y-79996000D01*
G37*
G36*
X237496000Y-79996000D02*
X235394000Y-79996000D01*
X235394000Y-78994000D01*
X237496000Y-78994000D01*
X237496000Y-79996000D01*
X237496000Y-79996000D01*
G37*
G36*
X188651000Y-79451000D02*
X186749000Y-79451000D01*
X186749000Y-77549000D01*
X188651000Y-77549000D01*
X188651000Y-79451000D01*
X188651000Y-79451000D01*
G37*
G36*
X199375256Y-72891298D02*
X199481579Y-72912447D01*
X199782042Y-73036903D01*
X200048852Y-73215180D01*
X200052454Y-73217587D01*
X200282413Y-73447546D01*
X200463098Y-73717960D01*
X200587553Y-74018422D01*
X200651000Y-74337389D01*
X200651000Y-74662611D01*
X200587553Y-74981578D01*
X200463098Y-75282040D01*
X200282413Y-75552454D01*
X200052454Y-75782413D01*
X200052451Y-75782415D01*
X199782042Y-75963097D01*
X199481579Y-76087553D01*
X199375256Y-76108702D01*
X199162611Y-76151000D01*
X198837389Y-76151000D01*
X198624744Y-76108702D01*
X198518421Y-76087553D01*
X198217958Y-75963097D01*
X197947549Y-75782415D01*
X197947546Y-75782413D01*
X197717587Y-75552454D01*
X197536902Y-75282040D01*
X197412447Y-74981578D01*
X197349000Y-74662611D01*
X197349000Y-74337389D01*
X197412447Y-74018422D01*
X197536902Y-73717960D01*
X197717587Y-73447546D01*
X197947546Y-73217587D01*
X197951148Y-73215180D01*
X198217958Y-73036903D01*
X198518421Y-72912447D01*
X198624744Y-72891298D01*
X198837389Y-72849000D01*
X199162611Y-72849000D01*
X199375256Y-72891298D01*
X199375256Y-72891298D01*
G37*
M02*
